solid ascii
  facet normal 0.000000e+000 -0.000000e+000 -1.000000e+000
    outer loop
      vertex   -5.643594e-001 2.762601e-003 3.419994e+000
      vertex   5.356406e-001 2.762601e-003 3.419994e+000
      vertex   -5.643594e-001 -3.747237e+000 3.419994e+000
    endloop
  endfacet
  facet normal 0.000000e+000 0.000000e+000 -1.000000e+000
    outer loop
      vertex   -5.643594e-001 -3.747237e+000 3.419994e+000
      vertex   5.356406e-001 2.762601e-003 3.419994e+000
      vertex   5.356406e-001 -3.747237e+000 3.419994e+000
    endloop
  endfacet
  facet normal 1.000000e+000 0.000000e+000 -0.000000e+000
    outer loop
      vertex   5.356406e-001 2.762601e-003 3.419994e+000
      vertex   5.356406e-001 2.762601e-003 4.519994e+000
      vertex   5.356406e-001 -3.747237e+000 3.419994e+000
    endloop
  endfacet
  facet normal 1.000000e+000 0.000000e+000 -0.000000e+000
    outer loop
      vertex   5.356406e-001 -3.747237e+000 3.419994e+000
      vertex   5.356406e-001 2.762601e-003 4.519994e+000
      vertex   5.356406e-001 -3.747237e+000 4.519994e+000
    endloop
  endfacet
  facet normal -1.000000e+000 -0.000000e+000 -0.000000e+000
    outer loop
      vertex   -5.643594e-001 2.762601e-003 4.519994e+000
      vertex   -5.643594e-001 2.762601e-003 3.419994e+000
      vertex   -5.643594e-001 -3.747237e+000 4.519994e+000
    endloop
  endfacet
  facet normal -1.000000e+000 -0.000000e+000 -0.000000e+000
    outer loop
      vertex   -5.643594e-001 -3.747237e+000 4.519994e+000
      vertex   -5.643594e-001 2.762601e-003 3.419994e+000
      vertex   -5.643594e-001 -3.747237e+000 3.419994e+000
    endloop
  endfacet
  facet normal -1.000000e+000 0.000000e+000 0.000000e+000
    outer loop
      vertex   -5.643594e-001 3.552763e+000 3.419994e+000
      vertex   -5.643594e-001 3.552763e+000 4.519994e+000
      vertex   -5.643594e-001 1.325276e+001 3.419994e+000
    endloop
  endfacet
  facet normal -1.000000e+000 0.000000e+000 0.000000e+000
    outer loop
      vertex   -5.643594e-001 1.325276e+001 3.419994e+000
      vertex   -5.643594e-001 3.552763e+000 4.519994e+000
      vertex   -5.643594e-001 1.325276e+001 4.519994e+000
    endloop
  endfacet
  facet normal 0.000000e+000 0.000000e+000 1.000000e+000
    outer loop
      vertex   5.356406e-001 2.762601e-003 4.519994e+000
      vertex   -5.643594e-001 2.762601e-003 4.519994e+000
      vertex   5.356406e-001 -3.747237e+000 4.519994e+000
    endloop
  endfacet
  facet normal 0.000000e+000 0.000000e+000 1.000000e+000
    outer loop
      vertex   5.356406e-001 -3.747237e+000 4.519994e+000
      vertex   -5.643594e-001 2.762601e-003 4.519994e+000
      vertex   -5.643594e-001 -3.747237e+000 4.519994e+000
    endloop
  endfacet
  facet normal 0.000000e+000 -0.000000e+000 1.000000e+000
    outer loop
      vertex   -5.643594e-001 3.552763e+000 4.519994e+000
      vertex   5.356406e-001 3.552763e+000 4.519994e+000
      vertex   -5.643594e-001 1.325276e+001 4.519994e+000
    endloop
  endfacet
  facet normal -0.000000e+000 0.000000e+000 1.000000e+000
    outer loop
      vertex   -5.643594e-001 1.325276e+001 4.519994e+000
      vertex   5.356406e-001 3.552763e+000 4.519994e+000
      vertex   5.356406e-001 1.325276e+001 4.519994e+000
    endloop
  endfacet
  facet normal -7.071068e-001 7.071068e-001 0.000000e+000
    outer loop
      vertex   -3.143594e-001 1.350276e+001 4.269994e+000
      vertex   -3.143594e-001 1.350276e+001 3.669994e+000
      vertex   -5.643594e-001 1.325276e+001 4.519994e+000
    endloop
  endfacet
  facet normal -7.071068e-001 7.071068e-001 0.000000e+000
    outer loop
      vertex   -5.643594e-001 1.325276e+001 4.519994e+000
      vertex   -3.143594e-001 1.350276e+001 3.669994e+000
      vertex   -5.643594e-001 1.325276e+001 3.419994e+000
    endloop
  endfacet
  facet normal 0.000000e+000 7.071068e-001 -7.071068e-001
    outer loop
      vertex   -3.143594e-001 1.350276e+001 3.669994e+000
      vertex   2.856406e-001 1.350276e+001 3.669994e+000
      vertex   -5.643594e-001 1.325276e+001 3.419994e+000
    endloop
  endfacet
  facet normal 0.000000e+000 7.071068e-001 -7.071068e-001
    outer loop
      vertex   -5.643594e-001 1.325276e+001 3.419994e+000
      vertex   2.856406e-001 1.350276e+001 3.669994e+000
      vertex   5.356406e-001 1.325276e+001 3.419994e+000
    endloop
  endfacet
  facet normal 7.071068e-001 7.071068e-001 0.000000e+000
    outer loop
      vertex   2.856406e-001 1.350276e+001 4.269994e+000
      vertex   5.356406e-001 1.325276e+001 4.519994e+000
      vertex   2.856406e-001 1.350276e+001 3.669994e+000
    endloop
  endfacet
  facet normal 7.071068e-001 7.071068e-001 0.000000e+000
    outer loop
      vertex   2.856406e-001 1.350276e+001 3.669994e+000
      vertex   5.356406e-001 1.325276e+001 4.519994e+000
      vertex   5.356406e-001 1.325276e+001 3.419994e+000
    endloop
  endfacet
  facet normal 0.000000e+000 7.071068e-001 7.071068e-001
    outer loop
      vertex   2.856406e-001 1.350276e+001 4.269994e+000
      vertex   -3.143594e-001 1.350276e+001 4.269994e+000
      vertex   5.356406e-001 1.325276e+001 4.519994e+000
    endloop
  endfacet
  facet normal 0.000000e+000 7.071068e-001 7.071068e-001
    outer loop
      vertex   5.356406e-001 1.325276e+001 4.519994e+000
      vertex   -3.143594e-001 1.350276e+001 4.269994e+000
      vertex   -5.643594e-001 1.325276e+001 4.519994e+000
    endloop
  endfacet
  facet normal -0.000000e+000 1.000000e+000 0.000000e+000
    outer loop
      vertex   -3.143594e-001 1.350276e+001 4.269994e+000
      vertex   2.856406e-001 1.350276e+001 4.269994e+000
      vertex   -3.143594e-001 1.350276e+001 3.669994e+000
    endloop
  endfacet
  facet normal -0.000000e+000 1.000000e+000 0.000000e+000
    outer loop
      vertex   -3.143594e-001 1.350276e+001 3.669994e+000
      vertex   2.856406e-001 1.350276e+001 4.269994e+000
      vertex   2.856406e-001 1.350276e+001 3.669994e+000
    endloop
  endfacet
  facet normal -7.071068e-001 -7.071068e-001 0.000000e+000
    outer loop
      vertex   -3.143594e-001 -3.997237e+000 4.269994e+000
      vertex   -5.643594e-001 -3.747237e+000 4.519994e+000
      vertex   -3.143594e-001 -3.997237e+000 3.669994e+000
    endloop
  endfacet
  facet normal -7.071068e-001 -7.071068e-001 -0.000000e+000
    outer loop
      vertex   -3.143594e-001 -3.997237e+000 3.669994e+000
      vertex   -5.643594e-001 -3.747237e+000 4.519994e+000
      vertex   -5.643594e-001 -3.747237e+000 3.419994e+000
    endloop
  endfacet
  facet normal -0.000000e+000 -7.071068e-001 -7.071068e-001
    outer loop
      vertex   2.856406e-001 -3.997237e+000 3.669994e+000
      vertex   -3.143594e-001 -3.997237e+000 3.669994e+000
      vertex   5.356406e-001 -3.747237e+000 3.419994e+000
    endloop
  endfacet
  facet normal 0.000000e+000 -7.071068e-001 -7.071068e-001
    outer loop
      vertex   5.356406e-001 -3.747237e+000 3.419994e+000
      vertex   -3.143594e-001 -3.997237e+000 3.669994e+000
      vertex   -5.643594e-001 -3.747237e+000 3.419994e+000
    endloop
  endfacet
  facet normal 6.542052e-016 -7.071068e-001 7.071068e-001
    outer loop
      vertex   -3.143594e-001 -3.997237e+000 4.269994e+000
      vertex   2.856406e-001 -3.997237e+000 4.269994e+000
      vertex   -5.643594e-001 -3.747237e+000 4.519994e+000
    endloop
  endfacet
  facet normal 0.000000e+000 -7.071068e-001 7.071068e-001
    outer loop
      vertex   -5.643594e-001 -3.747237e+000 4.519994e+000
      vertex   2.856406e-001 -3.997237e+000 4.269994e+000
      vertex   5.356406e-001 -3.747237e+000 4.519994e+000
    endloop
  endfacet
  facet normal 7.071068e-001 -7.071068e-001 -4.088782e-017
    outer loop
      vertex   2.856406e-001 -3.997237e+000 4.269994e+000
      vertex   2.856406e-001 -3.997237e+000 3.669994e+000
      vertex   5.356406e-001 -3.747237e+000 4.519994e+000
    endloop
  endfacet
  facet normal 7.071068e-001 -7.071068e-001 0.000000e+000
    outer loop
      vertex   5.356406e-001 -3.747237e+000 4.519994e+000
      vertex   2.856406e-001 -3.997237e+000 3.669994e+000
      vertex   5.356406e-001 -3.747237e+000 3.419994e+000
    endloop
  endfacet
  facet normal 0.000000e+000 0.000000e+000 -1.000000e+000
    outer loop
      vertex   5.356406e-001 3.552763e+000 3.419994e+000
      vertex   -5.643594e-001 3.552763e+000 3.419994e+000
      vertex   5.356406e-001 1.325276e+001 3.419994e+000
    endloop
  endfacet
  facet normal -0.000000e+000 0.000000e+000 -1.000000e+000
    outer loop
      vertex   5.356406e-001 1.325276e+001 3.419994e+000
      vertex   -5.643594e-001 3.552763e+000 3.419994e+000
      vertex   -5.643594e-001 1.325276e+001 3.419994e+000
    endloop
  endfacet
  facet normal 0.000000e+000 -1.000000e+000 0.000000e+000
    outer loop
      vertex   -3.143594e-001 -3.997237e+000 3.669994e+000
      vertex   2.856406e-001 -3.997237e+000 3.669994e+000
      vertex   -3.143594e-001 -3.997237e+000 4.269994e+000
    endloop
  endfacet
  facet normal 0.000000e+000 -1.000000e+000 0.000000e+000
    outer loop
      vertex   -3.143594e-001 -3.997237e+000 4.269994e+000
      vertex   2.856406e-001 -3.997237e+000 3.669994e+000
      vertex   2.856406e-001 -3.997237e+000 4.269994e+000
    endloop
  endfacet
  facet normal 1.000000e+000 -0.000000e+000 0.000000e+000
    outer loop
      vertex   5.356406e-001 3.552763e+000 4.519994e+000
      vertex   5.356406e-001 3.552763e+000 3.419994e+000
      vertex   5.356406e-001 1.325276e+001 4.519994e+000
    endloop
  endfacet
  facet normal 1.000000e+000 -0.000000e+000 0.000000e+000
    outer loop
      vertex   5.356406e-001 1.325276e+001 4.519994e+000
      vertex   5.356406e-001 3.552763e+000 3.419994e+000
      vertex   5.356406e-001 1.325276e+001 3.419994e+000
    endloop
  endfacet
  facet normal 0.000000e+000 1.000000e+000 0.000000e+000
    outer loop
      vertex   5.356406e-001 3.552763e+000 3.419994e+000
      vertex   5.356406e-001 3.552763e+000 4.519994e+000
      vertex   1.635641e+000 3.552763e+000 5.605194e+000
    endloop
  endfacet
  facet normal -0.000000e+000 1.000000e+000 0.000000e+000
    outer loop
      vertex   5.356406e-001 3.552763e+000 5.575942e-001
      vertex   1.635641e+000 3.552763e+000 5.605194e+000
      vertex   5.356406e-001 3.552763e+000 -5.424058e-001
    endloop
  endfacet
  facet normal 0.000000e+000 1.000000e+000 0.000000e+000
    outer loop
      vertex   5.356406e-001 3.552763e+000 5.575942e-001
      vertex   5.356406e-001 3.552763e+000 3.419994e+000
      vertex   1.635641e+000 3.552763e+000 5.605194e+000
    endloop
  endfacet
  facet normal 0.000000e+000 1.000000e+000 -0.000000e+000
    outer loop
      vertex   5.356406e-001 3.552763e+000 5.575942e-001
      vertex   -5.643594e-001 3.552763e+000 5.575942e-001
      vertex   5.356406e-001 3.552763e+000 3.419994e+000
    endloop
  endfacet
  facet normal 0.000000e+000 1.000000e+000 -0.000000e+000
    outer loop
      vertex   5.356406e-001 3.552763e+000 3.419994e+000
      vertex   -5.643594e-001 3.552763e+000 5.575942e-001
      vertex   -5.643594e-001 3.552763e+000 3.419994e+000
    endloop
  endfacet
  facet normal 0.000000e+000 1.000000e+000 0.000000e+000
    outer loop
      vertex   -5.643594e-001 3.552763e+000 3.419994e+000
      vertex   -5.643594e-001 3.552763e+000 5.575942e-001
      vertex   -5.564359e+000 3.552763e+000 5.605194e+000
    endloop
  endfacet
  facet normal 0.000000e+000 1.000000e+000 -0.000000e+000
    outer loop
      vertex   -5.643594e-001 3.552763e+000 4.519994e+000
      vertex   -5.564359e+000 3.552763e+000 5.605194e+000
      vertex   1.635641e+000 3.552763e+000 5.605194e+000
    endloop
  endfacet
  facet normal 0.000000e+000 1.000000e+000 -0.000000e+000
    outer loop
      vertex   5.356406e-001 3.552763e+000 4.519994e+000
      vertex   -5.643594e-001 3.552763e+000 4.519994e+000
      vertex   1.635641e+000 3.552763e+000 5.605194e+000
    endloop
  endfacet
  facet normal 0.000000e+000 1.000000e+000 0.000000e+000
    outer loop
      vertex   -5.643594e-001 3.552763e+000 4.519994e+000
      vertex   -5.643594e-001 3.552763e+000 3.419994e+000
      vertex   -5.564359e+000 3.552763e+000 5.605194e+000
    endloop
  endfacet
  facet normal 0.000000e+000 1.000000e+000 0.000000e+000
    outer loop
      vertex   1.635641e+000 3.552763e+000 5.605194e+000
      vertex   1.635641e+000 3.552763e+000 -6.194806e+000
      vertex   5.356406e-001 3.552763e+000 -5.424058e-001
    endloop
  endfacet
  facet normal 0.000000e+000 1.000000e+000 0.000000e+000
    outer loop
      vertex   5.356406e-001 3.552763e+000 -5.424058e-001
      vertex   1.635641e+000 3.552763e+000 -6.194806e+000
      vertex   5.356406e-001 3.552763e+000 -3.404806e+000
    endloop
  endfacet
  facet normal -0.000000e+000 1.000000e+000 0.000000e+000
    outer loop
      vertex   -5.643594e-001 3.552763e+000 -3.404806e+000
      vertex   5.356406e-001 3.552763e+000 -5.424058e-001
      vertex   5.356406e-001 3.552763e+000 -3.404806e+000
    endloop
  endfacet
  facet normal 0.000000e+000 1.000000e+000 0.000000e+000
    outer loop
      vertex   -5.643594e-001 3.552763e+000 -3.404806e+000
      vertex   -5.643594e-001 3.552763e+000 -5.424058e-001
      vertex   5.356406e-001 3.552763e+000 -5.424058e-001
    endloop
  endfacet
  facet normal 0.000000e+000 1.000000e+000 -0.000000e+000
    outer loop
      vertex   -5.643594e-001 3.552763e+000 -3.404806e+000
      vertex   -5.564359e+000 3.552763e+000 -6.194806e+000
      vertex   -5.643594e-001 3.552763e+000 -5.424058e-001
    endloop
  endfacet
  facet normal 0.000000e+000 1.000000e+000 0.000000e+000
    outer loop
      vertex   -5.643594e-001 3.552763e+000 -3.404806e+000
      vertex   -5.643594e-001 3.552763e+000 -4.504806e+000
      vertex   -5.564359e+000 3.552763e+000 -6.194806e+000
    endloop
  endfacet
  facet normal -0.000000e+000 1.000000e+000 0.000000e+000
    outer loop
      vertex   -5.564359e+000 3.552763e+000 -6.194806e+000
      vertex   -5.643594e-001 3.552763e+000 -4.504806e+000
      vertex   1.635641e+000 3.552763e+000 -6.194806e+000
    endloop
  endfacet
  facet normal 0.000000e+000 1.000000e+000 -0.000000e+000
    outer loop
      vertex   1.635641e+000 3.552763e+000 -6.194806e+000
      vertex   -5.643594e-001 3.552763e+000 -4.504806e+000
      vertex   5.356406e-001 3.552763e+000 -4.504806e+000
    endloop
  endfacet
  facet normal 0.000000e+000 1.000000e+000 0.000000e+000
    outer loop
      vertex   5.356406e-001 3.552763e+000 -3.404806e+000
      vertex   1.635641e+000 3.552763e+000 -6.194806e+000
      vertex   5.356406e-001 3.552763e+000 -4.504806e+000
    endloop
  endfacet
  facet normal -0.000000e+000 1.000000e+000 0.000000e+000
    outer loop
      vertex   -5.564359e+000 3.552763e+000 -6.194806e+000
      vertex   -5.564359e+000 3.552763e+000 5.605194e+000
      vertex   -5.643594e-001 3.552763e+000 -5.424058e-001
    endloop
  endfacet
  facet normal -0.000000e+000 1.000000e+000 -0.000000e+000
    outer loop
      vertex   -5.643594e-001 3.552763e+000 -5.424058e-001
      vertex   -5.564359e+000 3.552763e+000 5.605194e+000
      vertex   -5.643594e-001 3.552763e+000 5.575942e-001
    endloop
  endfacet
  facet normal -1.009294e-015 -1.000000e+000 -6.696383e-016
    outer loop
      vertex   5.356406e-001 2.762601e-003 4.519994e+000
      vertex   2.015641e+000 2.762601e-003 5.605194e+000
      vertex   -5.643594e-001 2.762601e-003 4.519994e+000
    endloop
  endfacet
  facet normal -1.500301e-015 -1.000000e+000 -0.000000e+000
    outer loop
      vertex   5.356406e-001 2.762601e-003 4.519994e+000
      vertex   5.356406e-001 2.762601e-003 3.419994e+000
      vertex   2.015641e+000 2.762601e-003 5.605194e+000
    endloop
  endfacet
  facet normal -1.500301e-015 -1.000000e+000 -0.000000e+000
    outer loop
      vertex   2.015641e+000 2.762601e-003 5.605194e+000
      vertex   5.356406e-001 2.762601e-003 3.419994e+000
      vertex   5.356406e-001 2.762601e-003 5.575942e-001
    endloop
  endfacet
  facet normal -1.500301e-015 -1.000000e+000 0.000000e+000
    outer loop
      vertex   5.356406e-001 2.762601e-003 -5.424058e-001
      vertex   2.015641e+000 2.762601e-003 5.605194e+000
      vertex   5.356406e-001 2.762601e-003 5.575942e-001
    endloop
  endfacet
  facet normal -1.500301e-015 -1.000000e+000 0.000000e+000
    outer loop
      vertex   5.356406e-001 2.762601e-003 -5.424058e-001
      vertex   2.015641e+000 2.762601e-003 -6.194806e+000
      vertex   2.015641e+000 2.762601e-003 5.605194e+000
    endloop
  endfacet
  facet normal -1.500301e-015 -1.000000e+000 -0.000000e+000
    outer loop
      vertex   5.356406e-001 2.762601e-003 -5.424058e-001
      vertex   5.356406e-001 2.762601e-003 -3.404806e+000
      vertex   2.015641e+000 2.762601e-003 -6.194806e+000
    endloop
  endfacet
  facet normal -1.009294e-015 -1.000000e+000 0.000000e+000
    outer loop
      vertex   5.356406e-001 2.762601e-003 -5.424058e-001
      vertex   -5.643594e-001 2.762601e-003 -5.424058e-001
      vertex   5.356406e-001 2.762601e-003 -3.404806e+000
    endloop
  endfacet
  facet normal -1.009294e-015 -1.000000e+000 -0.000000e+000
    outer loop
      vertex   5.356406e-001 2.762601e-003 -3.404806e+000
      vertex   -5.643594e-001 2.762601e-003 -5.424058e-001
      vertex   -5.643594e-001 2.762601e-003 -3.404806e+000
    endloop
  endfacet
  facet normal -1.332268e-015 -1.000000e+000 0.000000e+000
    outer loop
      vertex   -5.643594e-001 2.762601e-003 -3.404806e+000
      vertex   -5.643594e-001 2.762601e-003 -5.424058e-001
      vertex   -5.564359e+000 2.762601e-003 -6.194806e+000
    endloop
  endfacet
  facet normal -1.318207e-015 -1.000000e+000 -4.160021e-017
    outer loop
      vertex   -5.643594e-001 2.762601e-003 -4.504806e+000
      vertex   -5.564359e+000 2.762601e-003 -6.194806e+000
      vertex   2.015641e+000 2.762601e-003 -6.194806e+000
    endloop
  endfacet
  facet normal -1.500301e-015 -1.000000e+000 0.000000e+000
    outer loop
      vertex   5.356406e-001 2.762601e-003 -4.504806e+000
      vertex   2.015641e+000 2.762601e-003 -6.194806e+000
      vertex   5.356406e-001 2.762601e-003 -3.404806e+000
    endloop
  endfacet
  facet normal -1.009294e-015 -1.000000e+000 4.299949e-016
    outer loop
      vertex   5.356406e-001 2.762601e-003 -4.504806e+000
      vertex   -5.643594e-001 2.762601e-003 -4.504806e+000
      vertex   2.015641e+000 2.762601e-003 -6.194806e+000
    endloop
  endfacet
  facet normal -1.009294e-015 -1.000000e+000 0.000000e+000
    outer loop
      vertex   5.356406e-001 2.762601e-003 3.419994e+000
      vertex   -5.643594e-001 2.762601e-003 3.419994e+000
      vertex   5.356406e-001 2.762601e-003 5.575942e-001
    endloop
  endfacet
  facet normal -1.009294e-015 -1.000000e+000 -0.000000e+000
    outer loop
      vertex   5.356406e-001 2.762601e-003 5.575942e-001
      vertex   -5.643594e-001 2.762601e-003 3.419994e+000
      vertex   -5.643594e-001 2.762601e-003 5.575942e-001
    endloop
  endfacet
  facet normal -1.332268e-015 -1.000000e+000 0.000000e+000
    outer loop
      vertex   -5.643594e-001 2.762601e-003 5.575942e-001
      vertex   -5.643594e-001 2.762601e-003 3.419994e+000
      vertex   -5.564359e+000 2.762601e-003 5.605194e+000
    endloop
  endfacet
  facet normal -1.332268e-015 -1.000000e+000 -0.000000e+000
    outer loop
      vertex   -5.643594e-001 2.762601e-003 -5.424058e-001
      vertex   -5.564359e+000 2.762601e-003 5.605194e+000
      vertex   -5.564359e+000 2.762601e-003 -6.194806e+000
    endloop
  endfacet
  facet normal -1.332268e-015 -1.000000e+000 0.000000e+000
    outer loop
      vertex   -5.643594e-001 2.762601e-003 -5.424058e-001
      vertex   -5.643594e-001 2.762601e-003 5.575942e-001
      vertex   -5.564359e+000 2.762601e-003 5.605194e+000
    endloop
  endfacet
  facet normal -1.332268e-015 -1.000000e+000 0.000000e+000
    outer loop
      vertex   -5.643594e-001 2.762601e-003 3.419994e+000
      vertex   -5.643594e-001 2.762601e-003 4.519994e+000
      vertex   -5.564359e+000 2.762601e-003 5.605194e+000
    endloop
  endfacet
  facet normal -1.318207e-015 -1.000000e+000 6.478470e-017
    outer loop
      vertex   -5.564359e+000 2.762601e-003 5.605194e+000
      vertex   -5.643594e-001 2.762601e-003 4.519994e+000
      vertex   2.015641e+000 2.762601e-003 5.605194e+000
    endloop
  endfacet
  facet normal -1.332268e-015 -1.000000e+000 0.000000e+000
    outer loop
      vertex   -5.643594e-001 2.762601e-003 -4.504806e+000
      vertex   -5.643594e-001 2.762601e-003 -3.404806e+000
      vertex   -5.564359e+000 2.762601e-003 -6.194806e+000
    endloop
  endfacet
  facet normal -1.000000e+000 0.000000e+000 -0.000000e+000
    outer loop
      vertex   -5.564359e+000 2.762601e-003 5.605194e+000
      vertex   -5.564359e+000 3.552763e+000 5.605194e+000
      vertex   -5.564359e+000 2.762601e-003 -6.194806e+000
    endloop
  endfacet
  facet normal -1.000000e+000 0.000000e+000 0.000000e+000
    outer loop
      vertex   -5.564359e+000 2.762601e-003 -6.194806e+000
      vertex   -5.564359e+000 3.552763e+000 5.605194e+000
      vertex   -5.564359e+000 3.552763e+000 -6.194806e+000
    endloop
  endfacet
  facet normal 8.571673e-001 5.150381e-001 0.000000e+000
    outer loop
      vertex   1.635641e+000 3.552763e+000 5.605194e+000
      vertex   1.942249e+000 3.042481e+000 5.605194e+000
      vertex   1.635641e+000 3.552763e+000 -6.194806e+000
    endloop
  endfacet
  facet normal 8.571673e-001 5.150381e-001 0.000000e+000
    outer loop
      vertex   1.635641e+000 3.552763e+000 -6.194806e+000
      vertex   1.942249e+000 3.042481e+000 5.605194e+000
      vertex   1.942249e+000 3.042481e+000 -6.194806e+000
    endloop
  endfacet
  facet normal 8.128467e-001 5.824777e-001 -0.000000e+000
    outer loop
      vertex   1.942249e+000 3.042481e+000 -6.194806e+000
      vertex   1.942249e+000 3.042481e+000 5.605194e+000
      vertex   2.004246e+000 2.955964e+000 -6.194806e+000
    endloop
  endfacet
  facet normal 8.128467e-001 5.824777e-001 0.000000e+000
    outer loop
      vertex   2.004246e+000 2.955964e+000 -6.194806e+000
      vertex   1.942249e+000 3.042481e+000 5.605194e+000
      vertex   2.004246e+000 2.955964e+000 5.605194e+000
    endloop
  endfacet
  facet normal 7.086478e-001 7.055624e-001 -0.000000e+000
    outer loop
      vertex   2.079344e+000 2.880538e+000 5.605194e+000
      vertex   2.004246e+000 2.955964e+000 -6.194806e+000
      vertex   2.004246e+000 2.955964e+000 5.605194e+000
    endloop
  endfacet
  facet normal 7.086478e-001 7.055624e-001 0.000000e+000
    outer loop
      vertex   2.079344e+000 2.880538e+000 5.605194e+000
      vertex   2.079344e+000 2.880538e+000 -6.194806e+000
      vertex   2.004246e+000 2.955964e+000 -6.194806e+000
    endloop
  endfacet
  facet normal 5.860189e-001 8.102974e-001 0.000000e+000
    outer loop
      vertex   2.079344e+000 2.880538e+000 5.605194e+000
      vertex   2.165589e+000 2.818164e+000 5.605194e+000
      vertex   2.079344e+000 2.880538e+000 -6.194806e+000
    endloop
  endfacet
  facet normal 5.860189e-001 8.102974e-001 0.000000e+000
    outer loop
      vertex   2.079344e+000 2.880538e+000 -6.194806e+000
      vertex   2.165589e+000 2.818164e+000 5.605194e+000
      vertex   2.165589e+000 2.818164e+000 -6.194806e+000
    endloop
  endfacet
  facet normal 4.481492e-001 8.939588e-001 -0.000000e+000
    outer loop
      vertex   2.165589e+000 2.818164e+000 -6.194806e+000
      vertex   2.165589e+000 2.818164e+000 5.605194e+000
      vertex   2.260739e+000 2.770464e+000 5.605194e+000
    endloop
  endfacet
  facet normal 2.986244e-001 9.543707e-001 -0.000000e+000
    outer loop
      vertex   2.260739e+000 2.770464e+000 -6.194806e+000
      vertex   2.260739e+000 2.770464e+000 5.605194e+000
      vertex   2.362319e+000 2.738680e+000 5.605194e+000
    endloop
  endfacet
  facet normal 1.413332e-001 9.899621e-001 -0.000000e+000
    outer loop
      vertex   2.362319e+000 2.738680e+000 -6.194806e+000
      vertex   2.362319e+000 2.738680e+000 5.605194e+000
      vertex   2.467687e+000 2.723637e+000 5.605194e+000
    endloop
  endfacet
  facet normal -1.963369e-002 9.998072e-001 0.000000e+000
    outer loop
      vertex   2.467687e+000 2.723637e+000 -6.194806e+000
      vertex   2.467687e+000 2.723637e+000 5.605194e+000
      vertex   2.574103e+000 2.725727e+000 5.605194e+000
    endloop
  endfacet
  facet normal -1.800900e-001 9.836501e-001 0.000000e+000
    outer loop
      vertex   2.574103e+000 2.725727e+000 -6.194806e+000
      vertex   2.574103e+000 2.725727e+000 5.605194e+000
      vertex   2.678800e+000 2.744895e+000 5.605194e+000
    endloop
  endfacet
  facet normal -3.358626e-001 9.419110e-001 0.000000e+000
    outer loop
      vertex   2.678800e+000 2.744895e+000 -6.194806e+000
      vertex   2.678800e+000 2.744895e+000 5.605194e+000
      vertex   2.779054e+000 2.780643e+000 5.605194e+000
    endloop
  endfacet
  facet normal -4.829003e-001 8.756753e-001 0.000000e+000
    outer loop
      vertex   2.779054e+000 2.780643e+000 -6.194806e+000
      vertex   2.779054e+000 2.780643e+000 5.605194e+000
      vertex   2.872258e+000 2.832041e+000 5.605194e+000
    endloop
  endfacet
  facet normal -6.173792e-001 7.866657e-001 0.000000e+000
    outer loop
      vertex   2.872258e+000 2.832041e+000 -6.194806e+000
      vertex   2.872258e+000 2.832041e+000 5.605194e+000
      vertex   2.955988e+000 2.897753e+000 5.605194e+000
    endloop
  endfacet
  facet normal -7.358017e-001 6.771971e-001 0.000000e+000
    outer loop
      vertex   2.955988e+000 2.897753e+000 -6.194806e+000
      vertex   2.955988e+000 2.897753e+000 5.605194e+000
      vertex   3.028066e+000 2.976069e+000 -6.194806e+000
    endloop
  endfacet
  facet normal -6.173792e-001 7.866657e-001 0.000000e+000
    outer loop
      vertex   2.955988e+000 2.897753e+000 -6.194806e+000
      vertex   2.872258e+000 2.832041e+000 -6.194806e+000
      vertex   2.955988e+000 2.897753e+000 5.605194e+000
    endloop
  endfacet
  facet normal -7.358017e-001 6.771971e-001 0.000000e+000
    outer loop
      vertex   2.955988e+000 2.897753e+000 5.605194e+000
      vertex   3.028066e+000 2.976069e+000 5.605194e+000
      vertex   3.028066e+000 2.976069e+000 -6.194806e+000
    endloop
  endfacet
  facet normal -4.829003e-001 8.756753e-001 0.000000e+000
    outer loop
      vertex   2.872258e+000 2.832041e+000 -6.194806e+000
      vertex   2.779054e+000 2.780643e+000 -6.194806e+000
      vertex   2.872258e+000 2.832041e+000 5.605194e+000
    endloop
  endfacet
  facet normal -3.358626e-001 9.419110e-001 0.000000e+000
    outer loop
      vertex   2.779054e+000 2.780643e+000 -6.194806e+000
      vertex   2.678800e+000 2.744895e+000 -6.194806e+000
      vertex   2.779054e+000 2.780643e+000 5.605194e+000
    endloop
  endfacet
  facet normal -1.800900e-001 9.836501e-001 0.000000e+000
    outer loop
      vertex   2.678800e+000 2.744895e+000 -6.194806e+000
      vertex   2.574103e+000 2.725727e+000 -6.194806e+000
      vertex   2.678800e+000 2.744895e+000 5.605194e+000
    endloop
  endfacet
  facet normal -1.963369e-002 9.998072e-001 0.000000e+000
    outer loop
      vertex   2.574103e+000 2.725727e+000 -6.194806e+000
      vertex   2.467687e+000 2.723637e+000 -6.194806e+000
      vertex   2.574103e+000 2.725727e+000 5.605194e+000
    endloop
  endfacet
  facet normal 1.413332e-001 9.899621e-001 0.000000e+000
    outer loop
      vertex   2.467687e+000 2.723637e+000 -6.194806e+000
      vertex   2.362319e+000 2.738680e+000 -6.194806e+000
      vertex   2.467687e+000 2.723637e+000 5.605194e+000
    endloop
  endfacet
  facet normal 2.986244e-001 9.543707e-001 0.000000e+000
    outer loop
      vertex   2.362319e+000 2.738680e+000 -6.194806e+000
      vertex   2.260739e+000 2.770464e+000 -6.194806e+000
      vertex   2.362319e+000 2.738680e+000 5.605194e+000
    endloop
  endfacet
  facet normal 4.481492e-001 8.939588e-001 0.000000e+000
    outer loop
      vertex   2.260739e+000 2.770464e+000 -6.194806e+000
      vertex   2.165589e+000 2.818164e+000 -6.194806e+000
      vertex   2.260739e+000 2.770464e+000 5.605194e+000
    endloop
  endfacet
  facet normal -7.880108e-001 6.156615e-001 0.000000e+000
    outer loop
      vertex   3.028066e+000 2.976069e+000 5.605194e+000
      vertex   3.409777e+000 3.464636e+000 5.605194e+000
      vertex   3.028066e+000 2.976069e+000 -6.194806e+000
    endloop
  endfacet
  facet normal -7.880108e-001 6.156615e-001 0.000000e+000
    outer loop
      vertex   3.028066e+000 2.976069e+000 -6.194806e+000
      vertex   3.409777e+000 3.464636e+000 5.605194e+000
      vertex   3.409777e+000 3.464636e+000 -6.194806e+000
    endloop
  endfacet
  facet normal -9.993908e-001 3.489950e-002 0.000000e+000
    outer loop
      vertex   3.409777e+000 3.464636e+000 5.605194e+000
      vertex   3.493586e+000 5.864636e+000 5.605194e+000
      vertex   3.409777e+000 3.464636e+000 -6.194806e+000
    endloop
  endfacet
  facet normal -9.993908e-001 3.489950e-002 0.000000e+000
    outer loop
      vertex   3.409777e+000 3.464636e+000 -6.194806e+000
      vertex   3.493586e+000 5.864636e+000 5.605194e+000
      vertex   3.493586e+000 5.864636e+000 -6.194806e+000
    endloop
  endfacet
  facet normal -7.743926e-001 -6.327053e-001 0.000000e+000
    outer loop
      vertex   3.493586e+000 5.864636e+000 5.605194e+000
      vertex   1.930804e+000 7.777386e+000 5.605194e+000
      vertex   3.493586e+000 5.864636e+000 -6.194806e+000
    endloop
  endfacet
  facet normal -7.743926e-001 -6.327053e-001 -0.000000e+000
    outer loop
      vertex   3.493586e+000 5.864636e+000 -6.194806e+000
      vertex   1.930804e+000 7.777386e+000 5.605194e+000
      vertex   1.930804e+000 7.777386e+000 -6.194806e+000
    endloop
  endfacet
  facet normal -8.249491e-001 -5.652070e-001 0.000000e+000
    outer loop
      vertex   1.930804e+000 7.777386e+000 5.605194e+000
      vertex   1.764124e+000 8.020664e+000 5.605194e+000
      vertex   1.930804e+000 7.777386e+000 -6.194806e+000
    endloop
  endfacet
  facet normal -8.249491e-001 -5.652070e-001 -0.000000e+000
    outer loop
      vertex   1.930804e+000 7.777386e+000 -6.194806e+000
      vertex   1.764124e+000 8.020664e+000 5.605194e+000
      vertex   1.764124e+000 8.020664e+000 -6.194806e+000
    endloop
  endfacet
  facet normal -9.081432e-001 -4.186597e-001 0.000000e+000
    outer loop
      vertex   1.764124e+000 8.020664e+000 -6.194806e+000
      vertex   1.764124e+000 8.020664e+000 5.605194e+000
      vertex   1.640660e+000 8.288477e+000 5.605194e+000
    endloop
  endfacet
  facet normal -9.655484e-001 -2.602237e-001 -1.772270e-018
    outer loop
      vertex   1.640660e+000 8.288477e+000 -6.194806e+000
      vertex   1.640660e+000 8.288477e+000 5.605194e+000
      vertex   1.563920e+000 8.573219e+000 -6.194806e+000
    endloop
  endfacet
  facet normal -9.081432e-001 -4.186597e-001 -1.869401e-017
    outer loop
      vertex   1.640660e+000 8.288477e+000 -6.194806e+000
      vertex   1.764124e+000 8.020664e+000 -6.194806e+000
      vertex   1.640660e+000 8.288477e+000 5.605194e+000
    endloop
  endfacet
  facet normal -9.655484e-001 -2.602237e-001 -2.448358e-017
    outer loop
      vertex   1.640660e+000 8.288477e+000 5.605194e+000
      vertex   1.563920e+000 8.573219e+000 5.605194e+000
      vertex   1.563920e+000 8.573219e+000 -6.194806e+000
    endloop
  endfacet
  facet normal -9.955345e-001 -9.439791e-002 -8.881587e-018
    outer loop
      vertex   1.563920e+000 8.573219e+000 -6.194806e+000
      vertex   1.563920e+000 8.573219e+000 5.605194e+000
      vertex   1.536082e+000 8.866803e+000 5.605194e+000
    endloop
  endfacet
  facet normal -9.972502e-001 7.410849e-002 6.972623e-018
    outer loop
      vertex   1.536082e+000 8.866803e+000 -6.194806e+000
      vertex   1.536082e+000 8.866803e+000 5.605194e+000
      vertex   1.557937e+000 9.160894e+000 -6.194806e+000
    endloop
  endfacet
  facet normal -9.955345e-001 -9.439791e-002 -8.957548e-018
    outer loop
      vertex   1.536082e+000 8.866803e+000 -6.194806e+000
      vertex   1.563920e+000 8.573219e+000 -6.194806e+000
      vertex   1.536082e+000 8.866803e+000 5.605194e+000
    endloop
  endfacet
  facet normal -9.972502e-001 7.410849e-002 0.000000e+000
    outer loop
      vertex   1.536082e+000 8.866803e+000 5.605194e+000
      vertex   1.557937e+000 9.160894e+000 5.605194e+000
      vertex   1.557937e+000 9.160894e+000 -6.194806e+000
    endloop
  endfacet
  facet normal -9.706466e-001 2.405104e-001 0.000000e+000
    outer loop
      vertex   1.557937e+000 9.160894e+000 -6.194806e+000
      vertex   1.557937e+000 9.160894e+000 5.605194e+000
      vertex   1.628864e+000 9.447139e+000 5.605194e+000
    endloop
  endfacet
  facet normal -9.164791e-001 4.000825e-001 1.608531e-017
    outer loop
      vertex   1.628864e+000 9.447139e+000 -6.194806e+000
      vertex   1.628864e+000 9.447139e+000 5.605194e+000
      vertex   1.746849e+000 9.717410e+000 5.605194e+000
    endloop
  endfacet
  facet normal -8.362862e-001 5.482932e-001 5.158710e-017
    outer loop
      vertex   1.746849e+000 9.717410e+000 -6.194806e+000
      vertex   1.746849e+000 9.717410e+000 5.605194e+000
      vertex   1.908541e+000 9.964032e+000 5.605194e+000
    endloop
  endfacet
  facet normal -7.323449e-001 6.809339e-001 -1.722598e-017
    outer loop
      vertex   1.908541e+000 9.964032e+000 -6.194806e+000
      vertex   1.908541e+000 9.964032e+000 5.605194e+000
      vertex   2.109349e+000 1.018000e+001 5.605194e+000
    endloop
  endfacet
  facet normal -7.323449e-001 6.809339e-001 0.000000e+000
    outer loop
      vertex   2.109349e+000 1.018000e+001 -6.194806e+000
      vertex   1.908541e+000 9.964032e+000 -6.194806e+000
      vertex   2.109349e+000 1.018000e+001 5.605194e+000
    endloop
  endfacet
  facet normal -8.362862e-001 5.482932e-001 -2.025185e-017
    outer loop
      vertex   1.908541e+000 9.964032e+000 -6.194806e+000
      vertex   1.746849e+000 9.717410e+000 -6.194806e+000
      vertex   1.908541e+000 9.964032e+000 5.605194e+000
    endloop
  endfacet
  facet normal -9.164791e-001 4.000825e-001 3.738803e-017
    outer loop
      vertex   1.746849e+000 9.717410e+000 -6.194806e+000
      vertex   1.628864e+000 9.447139e+000 -6.194806e+000
      vertex   1.746849e+000 9.717410e+000 5.605194e+000
    endloop
  endfacet
  facet normal -9.706466e-001 2.405104e-001 -7.789173e-019
    outer loop
      vertex   1.628864e+000 9.447139e+000 -6.194806e+000
      vertex   1.557937e+000 9.160894e+000 -6.194806e+000
      vertex   1.628864e+000 9.447139e+000 5.605194e+000
    endloop
  endfacet
  facet normal -6.723668e-001 7.402181e-001 0.000000e+000
    outer loop
      vertex   2.109349e+000 1.018000e+001 5.605194e+000
      vertex   4.559359e+000 1.240543e+001 5.605194e+000
      vertex   2.109349e+000 1.018000e+001 -6.194806e+000
    endloop
  endfacet
  facet normal -6.723668e-001 7.402181e-001 0.000000e+000
    outer loop
      vertex   2.109349e+000 1.018000e+001 -6.194806e+000
      vertex   4.559359e+000 1.240543e+001 5.605194e+000
      vertex   4.559359e+000 1.240543e+001 -6.194806e+000
    endloop
  endfacet
  facet normal 7.402181e-001 6.723668e-001 0.000000e+000
    outer loop
      vertex   4.559359e+000 1.240543e+001 5.605194e+000
      vertex   5.251897e+000 1.164301e+001 5.605194e+000
      vertex   4.559359e+000 1.240543e+001 -6.194806e+000
    endloop
  endfacet
  facet normal 7.402181e-001 6.723668e-001 0.000000e+000
    outer loop
      vertex   4.559359e+000 1.240543e+001 -6.194806e+000
      vertex   5.251897e+000 1.164301e+001 5.605194e+000
      vertex   5.251897e+000 1.164301e+001 -6.194806e+000
    endloop
  endfacet
  facet normal 6.723668e-001 -7.402181e-001 0.000000e+000
    outer loop
      vertex   5.251897e+000 1.164301e+001 5.605194e+000
      vertex   2.735155e+000 9.356962e+000 5.605194e+000
      vertex   5.251897e+000 1.164301e+001 -6.194806e+000
    endloop
  endfacet
  facet normal 6.723668e-001 -7.402181e-001 0.000000e+000
    outer loop
      vertex   5.251897e+000 1.164301e+001 -6.194806e+000
      vertex   2.735155e+000 9.356962e+000 5.605194e+000
      vertex   2.735155e+000 9.356962e+000 -6.194806e+000
    endloop
  endfacet
  facet normal 7.323449e-001 -6.809339e-001 0.000000e+000
    outer loop
      vertex   2.735155e+000 9.356962e+000 5.605194e+000
      vertex   2.663438e+000 9.279830e+000 5.605194e+000
      vertex   2.735155e+000 9.356962e+000 -6.194806e+000
    endloop
  endfacet
  facet normal 7.323449e-001 -6.809339e-001 0.000000e+000
    outer loop
      vertex   2.735155e+000 9.356962e+000 -6.194806e+000
      vertex   2.663438e+000 9.279830e+000 5.605194e+000
      vertex   2.663438e+000 9.279830e+000 -6.194806e+000
    endloop
  endfacet
  facet normal 8.362862e-001 -5.482932e-001 0.000000e+000
    outer loop
      vertex   2.663438e+000 9.279830e+000 -6.194806e+000
      vertex   2.663438e+000 9.279830e+000 5.605194e+000
      vertex   2.605691e+000 9.191751e+000 5.605194e+000
    endloop
  endfacet
  facet normal 9.164791e-001 -4.000825e-001 0.000000e+000
    outer loop
      vertex   2.605691e+000 9.191751e+000 -6.194806e+000
      vertex   2.605691e+000 9.191751e+000 5.605194e+000
      vertex   2.563553e+000 9.095225e+000 5.605194e+000
    endloop
  endfacet
  facet normal 9.706466e-001 -2.405104e-001 0.000000e+000
    outer loop
      vertex   2.563553e+000 9.095225e+000 -6.194806e+000
      vertex   2.563553e+000 9.095225e+000 5.605194e+000
      vertex   2.538222e+000 8.992995e+000 5.605194e+000
    endloop
  endfacet
  facet normal 9.972502e-001 -7.410849e-002 0.000000e+000
    outer loop
      vertex   2.538222e+000 8.992995e+000 -6.194806e+000
      vertex   2.538222e+000 8.992995e+000 5.605194e+000
      vertex   2.530417e+000 8.887963e+000 -6.194806e+000
    endloop
  endfacet
  facet normal 9.706466e-001 -2.405104e-001 0.000000e+000
    outer loop
      vertex   2.538222e+000 8.992995e+000 -6.194806e+000
      vertex   2.563553e+000 9.095225e+000 -6.194806e+000
      vertex   2.538222e+000 8.992995e+000 5.605194e+000
    endloop
  endfacet
  facet normal 9.972502e-001 -7.410849e-002 0.000000e+000
    outer loop
      vertex   2.538222e+000 8.992995e+000 5.605194e+000
      vertex   2.530417e+000 8.887963e+000 5.605194e+000
      vertex   2.530417e+000 8.887963e+000 -6.194806e+000
    endloop
  endfacet
  facet normal 9.955345e-001 9.439791e-002 -0.000000e+000
    outer loop
      vertex   2.530417e+000 8.887963e+000 -6.194806e+000
      vertex   2.530417e+000 8.887963e+000 5.605194e+000
      vertex   2.540359e+000 8.783111e+000 5.605194e+000
    endloop
  endfacet
  facet normal 9.655484e-001 2.602237e-001 -0.000000e+000
    outer loop
      vertex   2.540359e+000 8.783111e+000 -6.194806e+000
      vertex   2.540359e+000 8.783111e+000 5.605194e+000
      vertex   2.567766e+000 8.681418e+000 -6.194806e+000
    endloop
  endfacet
  facet normal 9.955345e-001 9.439791e-002 0.000000e+000
    outer loop
      vertex   2.540359e+000 8.783111e+000 -6.194806e+000
      vertex   2.530417e+000 8.887963e+000 -6.194806e+000
      vertex   2.540359e+000 8.783111e+000 5.605194e+000
    endloop
  endfacet
  facet normal 9.655484e-001 2.602237e-001 0.000000e+000
    outer loop
      vertex   2.540359e+000 8.783111e+000 5.605194e+000
      vertex   2.567766e+000 8.681418e+000 5.605194e+000
      vertex   2.567766e+000 8.681418e+000 -6.194806e+000
    endloop
  endfacet
  facet normal 9.081432e-001 4.186597e-001 -0.000000e+000
    outer loop
      vertex   2.567766e+000 8.681418e+000 -6.194806e+000
      vertex   2.567766e+000 8.681418e+000 5.605194e+000
      vertex   2.611861e+000 8.585770e+000 5.605194e+000
    endloop
  endfacet
  facet normal 8.249491e-001 5.652070e-001 -0.000000e+000
    outer loop
      vertex   2.611861e+000 8.585770e+000 -6.194806e+000
      vertex   2.611861e+000 8.585770e+000 5.605194e+000
      vertex   2.671389e+000 8.498885e+000 5.605194e+000
    endloop
  endfacet
  facet normal 8.249491e-001 5.652070e-001 0.000000e+000
    outer loop
      vertex   2.671389e+000 8.498885e+000 -6.194806e+000
      vertex   2.611861e+000 8.585770e+000 -6.194806e+000
      vertex   2.671389e+000 8.498885e+000 5.605194e+000
    endloop
  endfacet
  facet normal 9.081432e-001 4.186597e-001 0.000000e+000
    outer loop
      vertex   2.611861e+000 8.585770e+000 -6.194806e+000
      vertex   2.567766e+000 8.681418e+000 -6.194806e+000
      vertex   2.611861e+000 8.585770e+000 5.605194e+000
    endloop
  endfacet
  facet normal 9.164791e-001 -4.000825e-001 0.000000e+000
    outer loop
      vertex   2.563553e+000 9.095225e+000 -6.194806e+000
      vertex   2.605691e+000 9.191751e+000 -6.194806e+000
      vertex   2.563553e+000 9.095225e+000 5.605194e+000
    endloop
  endfacet
  facet normal 8.362862e-001 -5.482932e-001 0.000000e+000
    outer loop
      vertex   2.605691e+000 9.191751e+000 -6.194806e+000
      vertex   2.663438e+000 9.279830e+000 -6.194806e+000
      vertex   2.605691e+000 9.191751e+000 5.605194e+000
    endloop
  endfacet
  facet normal 7.743926e-001 6.327053e-001 0.000000e+000
    outer loop
      vertex   2.671389e+000 8.498885e+000 5.605194e+000
      vertex   4.822587e+000 5.865950e+000 5.605194e+000
      vertex   2.671389e+000 8.498885e+000 -6.194806e+000
    endloop
  endfacet
  facet normal 7.743926e-001 6.327053e-001 0.000000e+000
    outer loop
      vertex   2.671389e+000 8.498885e+000 -6.194806e+000
      vertex   4.822587e+000 5.865950e+000 5.605194e+000
      vertex   4.822587e+000 5.865950e+000 -6.194806e+000
    endloop
  endfacet
  facet normal 9.993908e-001 -3.489950e-002 0.000000e+000
    outer loop
      vertex   4.822587e+000 5.865950e+000 5.605194e+000
      vertex   4.710142e+000 2.645950e+000 5.605194e+000
      vertex   4.822587e+000 5.865950e+000 -6.194806e+000
    endloop
  endfacet
  facet normal 9.993908e-001 -3.489950e-002 0.000000e+000
    outer loop
      vertex   4.822587e+000 5.865950e+000 -6.194806e+000
      vertex   4.710142e+000 2.645950e+000 5.605194e+000
      vertex   4.710142e+000 2.645950e+000 -6.194806e+000
    endloop
  endfacet
  facet normal 9.944479e-001 -1.052298e-001 0.000000e+000
    outer loop
      vertex   4.710142e+000 2.645950e+000 -6.194806e+000
      vertex   4.710142e+000 2.645950e+000 5.605194e+000
      vertex   4.661312e+000 2.184493e+000 -6.194806e+000
    endloop
  endfacet
  facet normal 9.944479e-001 -1.052298e-001 -2.475077e-018
    outer loop
      vertex   4.661312e+000 2.184493e+000 -6.194806e+000
      vertex   4.710142e+000 2.645950e+000 5.605194e+000
      vertex   4.661312e+000 2.184493e+000 5.605194e+000
    endloop
  endfacet
  facet normal 9.616552e-001 -2.742614e-001 0.000000e+000
    outer loop
      vertex   4.534046e+000 1.738252e+000 -6.194806e+000
      vertex   4.661312e+000 2.184493e+000 5.605194e+000
      vertex   4.534046e+000 1.738252e+000 5.605194e+000
    endloop
  endfacet
  facet normal 9.003522e-001 -4.351620e-001 0.000000e+000
    outer loop
      vertex   4.332116e+000 1.320458e+000 -6.194806e+000
      vertex   4.534046e+000 1.738252e+000 5.605194e+000
      vertex   4.332116e+000 1.320458e+000 5.605194e+000
    endloop
  endfacet
  facet normal 8.123563e-001 -5.831614e-001 0.000000e+000
    outer loop
      vertex   4.061509e+000 9.434974e-001 -6.194806e+000
      vertex   4.332116e+000 1.320458e+000 5.605194e+000
      vertex   4.061509e+000 9.434974e-001 5.605194e+000
    endloop
  endfacet
  facet normal 7.002766e-001 -7.138717e-001 0.000000e+000
    outer loop
      vertex   3.730249e+000 6.185455e-001 -6.194806e+000
      vertex   4.061509e+000 9.434974e-001 5.605194e+000
      vertex   3.730249e+000 6.185455e-001 5.605194e+000
    endloop
  endfacet
  facet normal 5.674356e-001 -8.234178e-001 0.000000e+000
    outer loop
      vertex   3.348155e+000 3.552362e-001 -6.194806e+000
      vertex   3.730249e+000 6.185455e-001 5.605194e+000
      vertex   3.348155e+000 3.552362e-001 5.605194e+000
    endloop
  endfacet
  facet normal 4.177719e-001 -9.085519e-001 0.000000e+000
    outer loop
      vertex   2.926556e+000 1.613759e-001 -6.194806e+000
      vertex   3.348155e+000 3.552362e-001 5.605194e+000
      vertex   2.926556e+000 1.613759e-001 5.605194e+000
    endloop
  endfacet
  facet normal 2.557225e-001 -9.667502e-001 0.000000e+000
    outer loop
      vertex   2.477952e+000 4.271202e-002 -6.194806e+000
      vertex   2.926556e+000 1.613759e-001 5.605194e+000
      vertex   2.477952e+000 4.271202e-002 5.605194e+000
    endloop
  endfacet
  facet normal 8.609161e-002 -9.962872e-001 0.000000e+000
    outer loop
      vertex   2.015641e+000 2.762601e-003 -6.194806e+000
      vertex   2.477952e+000 4.271202e-002 5.605194e+000
      vertex   2.015641e+000 2.762601e-003 5.605194e+000
    endloop
  endfacet
  facet normal 8.609161e-002 -9.962872e-001 0.000000e+000
    outer loop
      vertex   2.015641e+000 2.762601e-003 -6.194806e+000
      vertex   2.477952e+000 4.271202e-002 -6.194806e+000
      vertex   2.477952e+000 4.271202e-002 5.605194e+000
    endloop
  endfacet
  facet normal 2.557225e-001 -9.667502e-001 0.000000e+000
    outer loop
      vertex   2.477952e+000 4.271202e-002 -6.194806e+000
      vertex   2.926556e+000 1.613759e-001 -6.194806e+000
      vertex   2.926556e+000 1.613759e-001 5.605194e+000
    endloop
  endfacet
  facet normal 4.177719e-001 -9.085519e-001 0.000000e+000
    outer loop
      vertex   2.926556e+000 1.613759e-001 -6.194806e+000
      vertex   3.348155e+000 3.552362e-001 -6.194806e+000
      vertex   3.348155e+000 3.552362e-001 5.605194e+000
    endloop
  endfacet
  facet normal 5.674356e-001 -8.234178e-001 0.000000e+000
    outer loop
      vertex   3.348155e+000 3.552362e-001 -6.194806e+000
      vertex   3.730249e+000 6.185455e-001 -6.194806e+000
      vertex   3.730249e+000 6.185455e-001 5.605194e+000
    endloop
  endfacet
  facet normal 7.002766e-001 -7.138717e-001 0.000000e+000
    outer loop
      vertex   3.730249e+000 6.185455e-001 -6.194806e+000
      vertex   4.061509e+000 9.434974e-001 -6.194806e+000
      vertex   4.061509e+000 9.434974e-001 5.605194e+000
    endloop
  endfacet
  facet normal 8.123563e-001 -5.831614e-001 0.000000e+000
    outer loop
      vertex   4.061509e+000 9.434974e-001 -6.194806e+000
      vertex   4.332116e+000 1.320458e+000 -6.194806e+000
      vertex   4.332116e+000 1.320458e+000 5.605194e+000
    endloop
  endfacet
  facet normal 9.003522e-001 -4.351620e-001 0.000000e+000
    outer loop
      vertex   4.332116e+000 1.320458e+000 -6.194806e+000
      vertex   4.534046e+000 1.738252e+000 -6.194806e+000
      vertex   4.534046e+000 1.738252e+000 5.605194e+000
    endloop
  endfacet
  facet normal 9.616552e-001 -2.742614e-001 -6.451088e-018
    outer loop
      vertex   4.534046e+000 1.738252e+000 -6.194806e+000
      vertex   4.661312e+000 2.184493e+000 -6.194806e+000
      vertex   4.661312e+000 2.184493e+000 5.605194e+000
    endloop
  endfacet
  facet normal -0.000000e+000 0.000000e+000 1.000000e+000
    outer loop
      vertex   -5.564359e+000 3.552763e+000 5.605194e+000
      vertex   -5.564359e+000 2.762601e-003 5.605194e+000
      vertex   1.635641e+000 3.552763e+000 5.605194e+000
    endloop
  endfacet
  facet normal 0.000000e+000 0.000000e+000 1.000000e+000
    outer loop
      vertex   1.635641e+000 3.552763e+000 5.605194e+000
      vertex   -5.564359e+000 2.762601e-003 5.605194e+000
      vertex   2.015641e+000 2.762601e-003 5.605194e+000
    endloop
  endfacet
  facet normal -0.000000e+000 -0.000000e+000 1.000000e+000
    outer loop
      vertex   1.942249e+000 3.042481e+000 5.605194e+000
      vertex   2.015641e+000 2.762601e-003 5.605194e+000
      vertex   2.004246e+000 2.955964e+000 5.605194e+000
    endloop
  endfacet
  facet normal 0.000000e+000 0.000000e+000 1.000000e+000
    outer loop
      vertex   1.942249e+000 3.042481e+000 5.605194e+000
      vertex   1.635641e+000 3.552763e+000 5.605194e+000
      vertex   2.015641e+000 2.762601e-003 5.605194e+000
    endloop
  endfacet
  facet normal -0.000000e+000 0.000000e+000 1.000000e+000
    outer loop
      vertex   1.764124e+000 8.020664e+000 5.605194e+000
      vertex   1.930804e+000 7.777386e+000 5.605194e+000
      vertex   2.671389e+000 8.498885e+000 5.605194e+000
    endloop
  endfacet
  facet normal -0.000000e+000 0.000000e+000 1.000000e+000
    outer loop
      vertex   2.611861e+000 8.585770e+000 5.605194e+000
      vertex   1.764124e+000 8.020664e+000 5.605194e+000
      vertex   2.671389e+000 8.498885e+000 5.605194e+000
    endloop
  endfacet
  facet normal 0.000000e+000 0.000000e+000 1.000000e+000
    outer loop
      vertex   2.611861e+000 8.585770e+000 5.605194e+000
      vertex   1.640660e+000 8.288477e+000 5.605194e+000
      vertex   1.764124e+000 8.020664e+000 5.605194e+000
    endloop
  endfacet
  facet normal 0.000000e+000 0.000000e+000 1.000000e+000
    outer loop
      vertex   2.611861e+000 8.585770e+000 5.605194e+000
      vertex   2.567766e+000 8.681418e+000 5.605194e+000
      vertex   1.640660e+000 8.288477e+000 5.605194e+000
    endloop
  endfacet
  facet normal 0.000000e+000 -0.000000e+000 1.000000e+000
    outer loop
      vertex   1.640660e+000 8.288477e+000 5.605194e+000
      vertex   2.567766e+000 8.681418e+000 5.605194e+000
      vertex   1.563920e+000 8.573219e+000 5.605194e+000
    endloop
  endfacet
  facet normal 0.000000e+000 -0.000000e+000 1.000000e+000
    outer loop
      vertex   1.563920e+000 8.573219e+000 5.605194e+000
      vertex   2.567766e+000 8.681418e+000 5.605194e+000
      vertex   2.540359e+000 8.783111e+000 5.605194e+000
    endloop
  endfacet
  facet normal -0.000000e+000 -0.000000e+000 1.000000e+000
    outer loop
      vertex   1.536082e+000 8.866803e+000 5.605194e+000
      vertex   2.540359e+000 8.783111e+000 5.605194e+000
      vertex   2.530417e+000 8.887963e+000 5.605194e+000
    endloop
  endfacet
  facet normal -0.000000e+000 0.000000e+000 1.000000e+000
    outer loop
      vertex   2.538222e+000 8.992995e+000 5.605194e+000
      vertex   1.536082e+000 8.866803e+000 5.605194e+000
      vertex   2.530417e+000 8.887963e+000 5.605194e+000
    endloop
  endfacet
  facet normal 0.000000e+000 0.000000e+000 1.000000e+000
    outer loop
      vertex   2.538222e+000 8.992995e+000 5.605194e+000
      vertex   1.557937e+000 9.160894e+000 5.605194e+000
      vertex   1.536082e+000 8.866803e+000 5.605194e+000
    endloop
  endfacet
  facet normal 0.000000e+000 -0.000000e+000 1.000000e+000
    outer loop
      vertex   2.538222e+000 8.992995e+000 5.605194e+000
      vertex   2.563553e+000 9.095225e+000 5.605194e+000
      vertex   1.557937e+000 9.160894e+000 5.605194e+000
    endloop
  endfacet
  facet normal -0.000000e+000 -0.000000e+000 1.000000e+000
    outer loop
      vertex   1.557937e+000 9.160894e+000 5.605194e+000
      vertex   2.563553e+000 9.095225e+000 5.605194e+000
      vertex   1.628864e+000 9.447139e+000 5.605194e+000
    endloop
  endfacet
  facet normal -0.000000e+000 0.000000e+000 1.000000e+000
    outer loop
      vertex   1.628864e+000 9.447139e+000 5.605194e+000
      vertex   2.563553e+000 9.095225e+000 5.605194e+000
      vertex   2.605691e+000 9.191751e+000 5.605194e+000
    endloop
  endfacet
  facet normal -0.000000e+000 0.000000e+000 1.000000e+000
    outer loop
      vertex   1.746849e+000 9.717410e+000 5.605194e+000
      vertex   2.605691e+000 9.191751e+000 5.605194e+000
      vertex   2.663438e+000 9.279830e+000 5.605194e+000
    endloop
  endfacet
  facet normal -0.000000e+000 0.000000e+000 1.000000e+000
    outer loop
      vertex   1.908541e+000 9.964032e+000 5.605194e+000
      vertex   2.663438e+000 9.279830e+000 5.605194e+000
      vertex   2.735155e+000 9.356962e+000 5.605194e+000
    endloop
  endfacet
  facet normal -0.000000e+000 0.000000e+000 1.000000e+000
    outer loop
      vertex   2.109349e+000 1.018000e+001 5.605194e+000
      vertex   2.735155e+000 9.356962e+000 5.605194e+000
      vertex   4.559359e+000 1.240543e+001 5.605194e+000
    endloop
  endfacet
  facet normal 0.000000e+000 0.000000e+000 1.000000e+000
    outer loop
      vertex   2.109349e+000 1.018000e+001 5.605194e+000
      vertex   1.908541e+000 9.964032e+000 5.605194e+000
      vertex   2.735155e+000 9.356962e+000 5.605194e+000
    endloop
  endfacet
  facet normal -0.000000e+000 0.000000e+000 1.000000e+000
    outer loop
      vertex   2.671389e+000 8.498885e+000 5.605194e+000
      vertex   3.493586e+000 5.864636e+000 5.605194e+000
      vertex   4.822587e+000 5.865950e+000 5.605194e+000
    endloop
  endfacet
  facet normal 0.000000e+000 0.000000e+000 1.000000e+000
    outer loop
      vertex   2.671389e+000 8.498885e+000 5.605194e+000
      vertex   1.930804e+000 7.777386e+000 5.605194e+000
      vertex   3.493586e+000 5.864636e+000 5.605194e+000
    endloop
  endfacet
  facet normal 0.000000e+000 0.000000e+000 1.000000e+000
    outer loop
      vertex   4.822587e+000 5.865950e+000 5.605194e+000
      vertex   3.409777e+000 3.464636e+000 5.605194e+000
      vertex   4.710142e+000 2.645950e+000 5.605194e+000
    endloop
  endfacet
  facet normal 0.000000e+000 0.000000e+000 1.000000e+000
    outer loop
      vertex   4.822587e+000 5.865950e+000 5.605194e+000
      vertex   3.493586e+000 5.864636e+000 5.605194e+000
      vertex   3.409777e+000 3.464636e+000 5.605194e+000
    endloop
  endfacet
  facet normal 0.000000e+000 0.000000e+000 1.000000e+000
    outer loop
      vertex   4.710142e+000 2.645950e+000 5.605194e+000
      vertex   3.028066e+000 2.976069e+000 5.605194e+000
      vertex   4.661312e+000 2.184493e+000 5.605194e+000
    endloop
  endfacet
  facet normal 0.000000e+000 0.000000e+000 1.000000e+000
    outer loop
      vertex   4.710142e+000 2.645950e+000 5.605194e+000
      vertex   3.409777e+000 3.464636e+000 5.605194e+000
      vertex   3.028066e+000 2.976069e+000 5.605194e+000
    endloop
  endfacet
  facet normal 0.000000e+000 0.000000e+000 1.000000e+000
    outer loop
      vertex   4.661312e+000 2.184493e+000 5.605194e+000
      vertex   2.955988e+000 2.897753e+000 5.605194e+000
      vertex   4.534046e+000 1.738252e+000 5.605194e+000
    endloop
  endfacet
  facet normal 0.000000e+000 0.000000e+000 1.000000e+000
    outer loop
      vertex   4.661312e+000 2.184493e+000 5.605194e+000
      vertex   3.028066e+000 2.976069e+000 5.605194e+000
      vertex   2.955988e+000 2.897753e+000 5.605194e+000
    endloop
  endfacet
  facet normal 0.000000e+000 0.000000e+000 1.000000e+000
    outer loop
      vertex   4.534046e+000 1.738252e+000 5.605194e+000
      vertex   2.872258e+000 2.832041e+000 5.605194e+000
      vertex   4.332116e+000 1.320458e+000 5.605194e+000
    endloop
  endfacet
  facet normal 0.000000e+000 0.000000e+000 1.000000e+000
    outer loop
      vertex   4.534046e+000 1.738252e+000 5.605194e+000
      vertex   2.955988e+000 2.897753e+000 5.605194e+000
      vertex   2.872258e+000 2.832041e+000 5.605194e+000
    endloop
  endfacet
  facet normal 0.000000e+000 -0.000000e+000 1.000000e+000
    outer loop
      vertex   2.735155e+000 9.356962e+000 5.605194e+000
      vertex   5.251897e+000 1.164301e+001 5.605194e+000
      vertex   4.559359e+000 1.240543e+001 5.605194e+000
    endloop
  endfacet
  facet normal 0.000000e+000 0.000000e+000 1.000000e+000
    outer loop
      vertex   1.908541e+000 9.964032e+000 5.605194e+000
      vertex   1.746849e+000 9.717410e+000 5.605194e+000
      vertex   2.663438e+000 9.279830e+000 5.605194e+000
    endloop
  endfacet
  facet normal 0.000000e+000 0.000000e+000 1.000000e+000
    outer loop
      vertex   1.746849e+000 9.717410e+000 5.605194e+000
      vertex   1.628864e+000 9.447139e+000 5.605194e+000
      vertex   2.605691e+000 9.191751e+000 5.605194e+000
    endloop
  endfacet
  facet normal -0.000000e+000 0.000000e+000 1.000000e+000
    outer loop
      vertex   1.536082e+000 8.866803e+000 5.605194e+000
      vertex   1.563920e+000 8.573219e+000 5.605194e+000
      vertex   2.540359e+000 8.783111e+000 5.605194e+000
    endloop
  endfacet
  facet normal 0.000000e+000 0.000000e+000 1.000000e+000
    outer loop
      vertex   2.872258e+000 2.832041e+000 5.605194e+000
      vertex   2.779054e+000 2.780643e+000 5.605194e+000
      vertex   4.332116e+000 1.320458e+000 5.605194e+000
    endloop
  endfacet
  facet normal 0.000000e+000 0.000000e+000 1.000000e+000
    outer loop
      vertex   4.332116e+000 1.320458e+000 5.605194e+000
      vertex   2.779054e+000 2.780643e+000 5.605194e+000
      vertex   4.061509e+000 9.434974e-001 5.605194e+000
    endloop
  endfacet
  facet normal 0.000000e+000 0.000000e+000 1.000000e+000
    outer loop
      vertex   4.061509e+000 9.434974e-001 5.605194e+000
      vertex   2.779054e+000 2.780643e+000 5.605194e+000
      vertex   2.678800e+000 2.744895e+000 5.605194e+000
    endloop
  endfacet
  facet normal 0.000000e+000 0.000000e+000 1.000000e+000
    outer loop
      vertex   3.730249e+000 6.185455e-001 5.605194e+000
      vertex   2.678800e+000 2.744895e+000 5.605194e+000
      vertex   2.574103e+000 2.725727e+000 5.605194e+000
    endloop
  endfacet
  facet normal 0.000000e+000 0.000000e+000 1.000000e+000
    outer loop
      vertex   3.348155e+000 3.552362e-001 5.605194e+000
      vertex   2.574103e+000 2.725727e+000 5.605194e+000
      vertex   2.467687e+000 2.723637e+000 5.605194e+000
    endloop
  endfacet
  facet normal 0.000000e+000 0.000000e+000 1.000000e+000
    outer loop
      vertex   2.926556e+000 1.613759e-001 5.605194e+000
      vertex   2.467687e+000 2.723637e+000 5.605194e+000
      vertex   2.362319e+000 2.738680e+000 5.605194e+000
    endloop
  endfacet
  facet normal 0.000000e+000 0.000000e+000 1.000000e+000
    outer loop
      vertex   2.477952e+000 4.271202e-002 5.605194e+000
      vertex   2.362319e+000 2.738680e+000 5.605194e+000
      vertex   2.260739e+000 2.770464e+000 5.605194e+000
    endloop
  endfacet
  facet normal 0.000000e+000 -0.000000e+000 1.000000e+000
    outer loop
      vertex   2.015641e+000 2.762601e-003 5.605194e+000
      vertex   2.260739e+000 2.770464e+000 5.605194e+000
      vertex   2.165589e+000 2.818164e+000 5.605194e+000
    endloop
  endfacet
  facet normal -0.000000e+000 0.000000e+000 1.000000e+000
    outer loop
      vertex   2.079344e+000 2.880538e+000 5.605194e+000
      vertex   2.015641e+000 2.762601e-003 5.605194e+000
      vertex   2.165589e+000 2.818164e+000 5.605194e+000
    endloop
  endfacet
  facet normal 0.000000e+000 0.000000e+000 1.000000e+000
    outer loop
      vertex   2.079344e+000 2.880538e+000 5.605194e+000
      vertex   2.004246e+000 2.955964e+000 5.605194e+000
      vertex   2.015641e+000 2.762601e-003 5.605194e+000
    endloop
  endfacet
  facet normal 0.000000e+000 0.000000e+000 1.000000e+000
    outer loop
      vertex   2.477952e+000 4.271202e-002 5.605194e+000
      vertex   2.260739e+000 2.770464e+000 5.605194e+000
      vertex   2.015641e+000 2.762601e-003 5.605194e+000
    endloop
  endfacet
  facet normal 0.000000e+000 0.000000e+000 1.000000e+000
    outer loop
      vertex   2.926556e+000 1.613759e-001 5.605194e+000
      vertex   2.362319e+000 2.738680e+000 5.605194e+000
      vertex   2.477952e+000 4.271202e-002 5.605194e+000
    endloop
  endfacet
  facet normal 0.000000e+000 0.000000e+000 1.000000e+000
    outer loop
      vertex   3.348155e+000 3.552362e-001 5.605194e+000
      vertex   2.467687e+000 2.723637e+000 5.605194e+000
      vertex   2.926556e+000 1.613759e-001 5.605194e+000
    endloop
  endfacet
  facet normal 0.000000e+000 0.000000e+000 1.000000e+000
    outer loop
      vertex   3.730249e+000 6.185455e-001 5.605194e+000
      vertex   2.574103e+000 2.725727e+000 5.605194e+000
      vertex   3.348155e+000 3.552362e-001 5.605194e+000
    endloop
  endfacet
  facet normal 0.000000e+000 0.000000e+000 1.000000e+000
    outer loop
      vertex   4.061509e+000 9.434974e-001 5.605194e+000
      vertex   2.678800e+000 2.744895e+000 5.605194e+000
      vertex   3.730249e+000 6.185455e-001 5.605194e+000
    endloop
  endfacet
  facet normal 0.000000e+000 0.000000e+000 -1.000000e+000
    outer loop
      vertex   -5.564359e+000 2.762601e-003 -6.194806e+000
      vertex   1.635641e+000 3.552763e+000 -6.194806e+000
      vertex   2.015641e+000 2.762601e-003 -6.194806e+000
    endloop
  endfacet
  facet normal 0.000000e+000 0.000000e+000 -1.000000e+000
    outer loop
      vertex   -5.564359e+000 2.762601e-003 -6.194806e+000
      vertex   -5.564359e+000 3.552763e+000 -6.194806e+000
      vertex   1.635641e+000 3.552763e+000 -6.194806e+000
    endloop
  endfacet
  facet normal 0.000000e+000 0.000000e+000 -1.000000e+000
    outer loop
      vertex   1.635641e+000 3.552763e+000 -6.194806e+000
      vertex   1.942249e+000 3.042481e+000 -6.194806e+000
      vertex   2.015641e+000 2.762601e-003 -6.194806e+000
    endloop
  endfacet
  facet normal 0.000000e+000 0.000000e+000 -1.000000e+000
    outer loop
      vertex   2.015641e+000 2.762601e-003 -6.194806e+000
      vertex   1.942249e+000 3.042481e+000 -6.194806e+000
      vertex   2.004246e+000 2.955964e+000 -6.194806e+000
    endloop
  endfacet
  facet normal -0.000000e+000 0.000000e+000 -1.000000e+000
    outer loop
      vertex   2.079344e+000 2.880538e+000 -6.194806e+000
      vertex   2.015641e+000 2.762601e-003 -6.194806e+000
      vertex   2.004246e+000 2.955964e+000 -6.194806e+000
    endloop
  endfacet
  facet normal 0.000000e+000 -0.000000e+000 -1.000000e+000
    outer loop
      vertex   2.079344e+000 2.880538e+000 -6.194806e+000
      vertex   2.165589e+000 2.818164e+000 -6.194806e+000
      vertex   2.015641e+000 2.762601e-003 -6.194806e+000
    endloop
  endfacet
  facet normal 0.000000e+000 0.000000e+000 -1.000000e+000
    outer loop
      vertex   2.015641e+000 2.762601e-003 -6.194806e+000
      vertex   2.165589e+000 2.818164e+000 -6.194806e+000
      vertex   2.260739e+000 2.770464e+000 -6.194806e+000
    endloop
  endfacet
  facet normal 0.000000e+000 0.000000e+000 -1.000000e+000
    outer loop
      vertex   2.477952e+000 4.271202e-002 -6.194806e+000
      vertex   2.260739e+000 2.770464e+000 -6.194806e+000
      vertex   2.362319e+000 2.738680e+000 -6.194806e+000
    endloop
  endfacet
  facet normal 0.000000e+000 0.000000e+000 -1.000000e+000
    outer loop
      vertex   2.926556e+000 1.613759e-001 -6.194806e+000
      vertex   2.362319e+000 2.738680e+000 -6.194806e+000
      vertex   2.467687e+000 2.723637e+000 -6.194806e+000
    endloop
  endfacet
  facet normal 0.000000e+000 0.000000e+000 -1.000000e+000
    outer loop
      vertex   3.348155e+000 3.552362e-001 -6.194806e+000
      vertex   2.467687e+000 2.723637e+000 -6.194806e+000
      vertex   2.574103e+000 2.725727e+000 -6.194806e+000
    endloop
  endfacet
  facet normal 0.000000e+000 0.000000e+000 -1.000000e+000
    outer loop
      vertex   3.730249e+000 6.185455e-001 -6.194806e+000
      vertex   2.574103e+000 2.725727e+000 -6.194806e+000
      vertex   2.678800e+000 2.744895e+000 -6.194806e+000
    endloop
  endfacet
  facet normal 0.000000e+000 0.000000e+000 -1.000000e+000
    outer loop
      vertex   4.061509e+000 9.434974e-001 -6.194806e+000
      vertex   2.678800e+000 2.744895e+000 -6.194806e+000
      vertex   2.779054e+000 2.780643e+000 -6.194806e+000
    endloop
  endfacet
  facet normal 0.000000e+000 0.000000e+000 -1.000000e+000
    outer loop
      vertex   4.332116e+000 1.320458e+000 -6.194806e+000
      vertex   2.779054e+000 2.780643e+000 -6.194806e+000
      vertex   2.872258e+000 2.832041e+000 -6.194806e+000
    endloop
  endfacet
  facet normal 0.000000e+000 0.000000e+000 -1.000000e+000
    outer loop
      vertex   4.534046e+000 1.738252e+000 -6.194806e+000
      vertex   2.872258e+000 2.832041e+000 -6.194806e+000
      vertex   2.955988e+000 2.897753e+000 -6.194806e+000
    endloop
  endfacet
  facet normal 0.000000e+000 0.000000e+000 -1.000000e+000
    outer loop
      vertex   4.661312e+000 2.184493e+000 -6.194806e+000
      vertex   2.955988e+000 2.897753e+000 -6.194806e+000
      vertex   3.028066e+000 2.976069e+000 -6.194806e+000
    endloop
  endfacet
  facet normal 0.000000e+000 0.000000e+000 -1.000000e+000
    outer loop
      vertex   4.710142e+000 2.645950e+000 -6.194806e+000
      vertex   3.028066e+000 2.976069e+000 -6.194806e+000
      vertex   3.409777e+000 3.464636e+000 -6.194806e+000
    endloop
  endfacet
  facet normal -0.000000e+000 0.000000e+000 -1.000000e+000
    outer loop
      vertex   4.822587e+000 5.865950e+000 -6.194806e+000
      vertex   3.409777e+000 3.464636e+000 -6.194806e+000
      vertex   3.493586e+000 5.864636e+000 -6.194806e+000
    endloop
  endfacet
  facet normal -0.000000e+000 -0.000000e+000 -1.000000e+000
    outer loop
      vertex   2.671389e+000 8.498885e+000 -6.194806e+000
      vertex   3.493586e+000 5.864636e+000 -6.194806e+000
      vertex   1.930804e+000 7.777386e+000 -6.194806e+000
    endloop
  endfacet
  facet normal 0.000000e+000 -0.000000e+000 -1.000000e+000
    outer loop
      vertex   1.764124e+000 8.020664e+000 -6.194806e+000
      vertex   2.671389e+000 8.498885e+000 -6.194806e+000
      vertex   1.930804e+000 7.777386e+000 -6.194806e+000
    endloop
  endfacet
  facet normal 0.000000e+000 0.000000e+000 -1.000000e+000
    outer loop
      vertex   1.764124e+000 8.020664e+000 -6.194806e+000
      vertex   2.611861e+000 8.585770e+000 -6.194806e+000
      vertex   2.671389e+000 8.498885e+000 -6.194806e+000
    endloop
  endfacet
  facet normal 0.000000e+000 0.000000e+000 -1.000000e+000
    outer loop
      vertex   1.764124e+000 8.020664e+000 -6.194806e+000
      vertex   1.640660e+000 8.288477e+000 -6.194806e+000
      vertex   2.611861e+000 8.585770e+000 -6.194806e+000
    endloop
  endfacet
  facet normal -0.000000e+000 0.000000e+000 -1.000000e+000
    outer loop
      vertex   2.611861e+000 8.585770e+000 -6.194806e+000
      vertex   1.640660e+000 8.288477e+000 -6.194806e+000
      vertex   2.567766e+000 8.681418e+000 -6.194806e+000
    endloop
  endfacet
  facet normal -0.000000e+000 0.000000e+000 -1.000000e+000
    outer loop
      vertex   2.567766e+000 8.681418e+000 -6.194806e+000
      vertex   1.640660e+000 8.288477e+000 -6.194806e+000
      vertex   1.563920e+000 8.573219e+000 -6.194806e+000
    endloop
  endfacet
  facet normal -0.000000e+000 0.000000e+000 -1.000000e+000
    outer loop
      vertex   2.540359e+000 8.783111e+000 -6.194806e+000
      vertex   1.563920e+000 8.573219e+000 -6.194806e+000
      vertex   1.536082e+000 8.866803e+000 -6.194806e+000
    endloop
  endfacet
  facet normal -0.000000e+000 0.000000e+000 -1.000000e+000
    outer loop
      vertex   2.530417e+000 8.887963e+000 -6.194806e+000
      vertex   1.536082e+000 8.866803e+000 -6.194806e+000
      vertex   2.538222e+000 8.992995e+000 -6.194806e+000
    endloop
  endfacet
  facet normal -0.000000e+000 -0.000000e+000 -1.000000e+000
    outer loop
      vertex   2.530417e+000 8.887963e+000 -6.194806e+000
      vertex   2.540359e+000 8.783111e+000 -6.194806e+000
      vertex   1.536082e+000 8.866803e+000 -6.194806e+000
    endloop
  endfacet
  facet normal 0.000000e+000 0.000000e+000 -1.000000e+000
    outer loop
      vertex   1.536082e+000 8.866803e+000 -6.194806e+000
      vertex   1.557937e+000 9.160894e+000 -6.194806e+000
      vertex   2.538222e+000 8.992995e+000 -6.194806e+000
    endloop
  endfacet
  facet normal 0.000000e+000 0.000000e+000 -1.000000e+000
    outer loop
      vertex   2.538222e+000 8.992995e+000 -6.194806e+000
      vertex   1.557937e+000 9.160894e+000 -6.194806e+000
      vertex   2.563553e+000 9.095225e+000 -6.194806e+000
    endloop
  endfacet
  facet normal 0.000000e+000 0.000000e+000 -1.000000e+000
    outer loop
      vertex   2.563553e+000 9.095225e+000 -6.194806e+000
      vertex   1.557937e+000 9.160894e+000 -6.194806e+000
      vertex   1.628864e+000 9.447139e+000 -6.194806e+000
    endloop
  endfacet
  facet normal 0.000000e+000 0.000000e+000 -1.000000e+000
    outer loop
      vertex   2.605691e+000 9.191751e+000 -6.194806e+000
      vertex   1.628864e+000 9.447139e+000 -6.194806e+000
      vertex   1.746849e+000 9.717410e+000 -6.194806e+000
    endloop
  endfacet
  facet normal 0.000000e+000 0.000000e+000 -1.000000e+000
    outer loop
      vertex   2.663438e+000 9.279830e+000 -6.194806e+000
      vertex   1.746849e+000 9.717410e+000 -6.194806e+000
      vertex   1.908541e+000 9.964032e+000 -6.194806e+000
    endloop
  endfacet
  facet normal 0.000000e+000 0.000000e+000 -1.000000e+000
    outer loop
      vertex   2.735155e+000 9.356962e+000 -6.194806e+000
      vertex   1.908541e+000 9.964032e+000 -6.194806e+000
      vertex   2.109349e+000 1.018000e+001 -6.194806e+000
    endloop
  endfacet
  facet normal -0.000000e+000 0.000000e+000 -1.000000e+000
    outer loop
      vertex   4.559359e+000 1.240543e+001 -6.194806e+000
      vertex   2.735155e+000 9.356962e+000 -6.194806e+000
      vertex   2.109349e+000 1.018000e+001 -6.194806e+000
    endloop
  endfacet
  facet normal 0.000000e+000 -0.000000e+000 -1.000000e+000
    outer loop
      vertex   4.559359e+000 1.240543e+001 -6.194806e+000
      vertex   5.251897e+000 1.164301e+001 -6.194806e+000
      vertex   2.735155e+000 9.356962e+000 -6.194806e+000
    endloop
  endfacet
  facet normal -0.000000e+000 0.000000e+000 -1.000000e+000
    outer loop
      vertex   2.735155e+000 9.356962e+000 -6.194806e+000
      vertex   2.663438e+000 9.279830e+000 -6.194806e+000
      vertex   1.908541e+000 9.964032e+000 -6.194806e+000
    endloop
  endfacet
  facet normal -0.000000e+000 0.000000e+000 -1.000000e+000
    outer loop
      vertex   2.663438e+000 9.279830e+000 -6.194806e+000
      vertex   2.605691e+000 9.191751e+000 -6.194806e+000
      vertex   1.746849e+000 9.717410e+000 -6.194806e+000
    endloop
  endfacet
  facet normal -0.000000e+000 0.000000e+000 -1.000000e+000
    outer loop
      vertex   2.605691e+000 9.191751e+000 -6.194806e+000
      vertex   2.563553e+000 9.095225e+000 -6.194806e+000
      vertex   1.628864e+000 9.447139e+000 -6.194806e+000
    endloop
  endfacet
  facet normal 0.000000e+000 -0.000000e+000 -1.000000e+000
    outer loop
      vertex   2.540359e+000 8.783111e+000 -6.194806e+000
      vertex   2.567766e+000 8.681418e+000 -6.194806e+000
      vertex   1.563920e+000 8.573219e+000 -6.194806e+000
    endloop
  endfacet
  facet normal 0.000000e+000 -0.000000e+000 -1.000000e+000
    outer loop
      vertex   2.671389e+000 8.498885e+000 -6.194806e+000
      vertex   4.822587e+000 5.865950e+000 -6.194806e+000
      vertex   3.493586e+000 5.864636e+000 -6.194806e+000
    endloop
  endfacet
  facet normal -0.000000e+000 0.000000e+000 -1.000000e+000
    outer loop
      vertex   4.822587e+000 5.865950e+000 -6.194806e+000
      vertex   4.710142e+000 2.645950e+000 -6.194806e+000
      vertex   3.409777e+000 3.464636e+000 -6.194806e+000
    endloop
  endfacet
  facet normal -0.000000e+000 0.000000e+000 -1.000000e+000
    outer loop
      vertex   4.710142e+000 2.645950e+000 -6.194806e+000
      vertex   4.661312e+000 2.184493e+000 -6.194806e+000
      vertex   3.028066e+000 2.976069e+000 -6.194806e+000
    endloop
  endfacet
  facet normal -0.000000e+000 0.000000e+000 -1.000000e+000
    outer loop
      vertex   4.661312e+000 2.184493e+000 -6.194806e+000
      vertex   4.534046e+000 1.738252e+000 -6.194806e+000
      vertex   2.955988e+000 2.897753e+000 -6.194806e+000
    endloop
  endfacet
  facet normal -0.000000e+000 0.000000e+000 -1.000000e+000
    outer loop
      vertex   4.534046e+000 1.738252e+000 -6.194806e+000
      vertex   4.332116e+000 1.320458e+000 -6.194806e+000
      vertex   2.872258e+000 2.832041e+000 -6.194806e+000
    endloop
  endfacet
  facet normal -0.000000e+000 0.000000e+000 -1.000000e+000
    outer loop
      vertex   4.332116e+000 1.320458e+000 -6.194806e+000
      vertex   4.061509e+000 9.434974e-001 -6.194806e+000
      vertex   2.779054e+000 2.780643e+000 -6.194806e+000
    endloop
  endfacet
  facet normal -0.000000e+000 0.000000e+000 -1.000000e+000
    outer loop
      vertex   4.061509e+000 9.434974e-001 -6.194806e+000
      vertex   3.730249e+000 6.185455e-001 -6.194806e+000
      vertex   2.678800e+000 2.744895e+000 -6.194806e+000
    endloop
  endfacet
  facet normal -0.000000e+000 0.000000e+000 -1.000000e+000
    outer loop
      vertex   3.730249e+000 6.185455e-001 -6.194806e+000
      vertex   3.348155e+000 3.552362e-001 -6.194806e+000
      vertex   2.574103e+000 2.725727e+000 -6.194806e+000
    endloop
  endfacet
  facet normal -0.000000e+000 0.000000e+000 -1.000000e+000
    outer loop
      vertex   3.348155e+000 3.552362e-001 -6.194806e+000
      vertex   2.926556e+000 1.613759e-001 -6.194806e+000
      vertex   2.467687e+000 2.723637e+000 -6.194806e+000
    endloop
  endfacet
  facet normal -0.000000e+000 0.000000e+000 -1.000000e+000
    outer loop
      vertex   2.926556e+000 1.613759e-001 -6.194806e+000
      vertex   2.477952e+000 4.271202e-002 -6.194806e+000
      vertex   2.362319e+000 2.738680e+000 -6.194806e+000
    endloop
  endfacet
  facet normal -0.000000e+000 0.000000e+000 -1.000000e+000
    outer loop
      vertex   2.477952e+000 4.271202e-002 -6.194806e+000
      vertex   2.015641e+000 2.762601e-003 -6.194806e+000
      vertex   2.260739e+000 2.770464e+000 -6.194806e+000
    endloop
  endfacet
  facet normal 0.000000e+000 -0.000000e+000 -1.000000e+000
    outer loop
      vertex   -5.643594e-001 2.762601e-003 -5.424058e-001
      vertex   5.356406e-001 2.762601e-003 -5.424058e-001
      vertex   -5.643594e-001 -3.747237e+000 -5.424058e-001
    endloop
  endfacet
  facet normal 0.000000e+000 0.000000e+000 -1.000000e+000
    outer loop
      vertex   -5.643594e-001 -3.747237e+000 -5.424058e-001
      vertex   5.356406e-001 2.762601e-003 -5.424058e-001
      vertex   5.356406e-001 -3.747237e+000 -5.424058e-001
    endloop
  endfacet
  facet normal 0.000000e+000 0.000000e+000 -1.000000e+000
    outer loop
      vertex   5.356406e-001 3.552763e+000 -5.424058e-001
      vertex   -5.643594e-001 3.552763e+000 -5.424058e-001
      vertex   5.356406e-001 1.325276e+001 -5.424058e-001
    endloop
  endfacet
  facet normal -0.000000e+000 0.000000e+000 -1.000000e+000
    outer loop
      vertex   5.356406e-001 1.325276e+001 -5.424058e-001
      vertex   -5.643594e-001 3.552763e+000 -5.424058e-001
      vertex   -5.643594e-001 1.325276e+001 -5.424058e-001
    endloop
  endfacet
  facet normal -1.000000e+000 -0.000000e+000 -0.000000e+000
    outer loop
      vertex   -5.643594e-001 2.762601e-003 5.575942e-001
      vertex   -5.643594e-001 2.762601e-003 -5.424058e-001
      vertex   -5.643594e-001 -3.747237e+000 5.575942e-001
    endloop
  endfacet
  facet normal -1.000000e+000 -0.000000e+000 -0.000000e+000
    outer loop
      vertex   -5.643594e-001 -3.747237e+000 5.575942e-001
      vertex   -5.643594e-001 2.762601e-003 -5.424058e-001
      vertex   -5.643594e-001 -3.747237e+000 -5.424058e-001
    endloop
  endfacet
  facet normal -1.000000e+000 0.000000e+000 0.000000e+000
    outer loop
      vertex   -5.643594e-001 3.552763e+000 -5.424058e-001
      vertex   -5.643594e-001 3.552763e+000 5.575942e-001
      vertex   -5.643594e-001 1.325276e+001 -5.424058e-001
    endloop
  endfacet
  facet normal -1.000000e+000 0.000000e+000 0.000000e+000
    outer loop
      vertex   -5.643594e-001 1.325276e+001 -5.424058e-001
      vertex   -5.643594e-001 3.552763e+000 5.575942e-001
      vertex   -5.643594e-001 1.325276e+001 5.575942e-001
    endloop
  endfacet
  facet normal 1.000000e+000 0.000000e+000 -0.000000e+000
    outer loop
      vertex   5.356406e-001 2.762601e-003 -5.424058e-001
      vertex   5.356406e-001 2.762601e-003 5.575942e-001
      vertex   5.356406e-001 -3.747237e+000 -5.424058e-001
    endloop
  endfacet
  facet normal 1.000000e+000 0.000000e+000 -0.000000e+000
    outer loop
      vertex   5.356406e-001 -3.747237e+000 -5.424058e-001
      vertex   5.356406e-001 2.762601e-003 5.575942e-001
      vertex   5.356406e-001 -3.747237e+000 5.575942e-001
    endloop
  endfacet
  facet normal 0.000000e+000 0.000000e+000 1.000000e+000
    outer loop
      vertex   5.356406e-001 2.762601e-003 5.575942e-001
      vertex   -5.643594e-001 2.762601e-003 5.575942e-001
      vertex   5.356406e-001 -3.747237e+000 5.575942e-001
    endloop
  endfacet
  facet normal 0.000000e+000 0.000000e+000 1.000000e+000
    outer loop
      vertex   5.356406e-001 -3.747237e+000 5.575942e-001
      vertex   -5.643594e-001 2.762601e-003 5.575942e-001
      vertex   -5.643594e-001 -3.747237e+000 5.575942e-001
    endloop
  endfacet
  facet normal -7.071068e-001 7.071068e-001 0.000000e+000
    outer loop
      vertex   -3.143594e-001 1.350276e+001 3.075942e-001
      vertex   -3.143594e-001 1.350276e+001 -2.924058e-001
      vertex   -5.643594e-001 1.325276e+001 5.575942e-001
    endloop
  endfacet
  facet normal -7.071068e-001 7.071068e-001 0.000000e+000
    outer loop
      vertex   -5.643594e-001 1.325276e+001 5.575942e-001
      vertex   -3.143594e-001 1.350276e+001 -2.924058e-001
      vertex   -5.643594e-001 1.325276e+001 -5.424058e-001
    endloop
  endfacet
  facet normal 0.000000e+000 7.071068e-001 -7.071068e-001
    outer loop
      vertex   -3.143594e-001 1.350276e+001 -2.924058e-001
      vertex   2.856406e-001 1.350276e+001 -2.924058e-001
      vertex   -5.643594e-001 1.325276e+001 -5.424058e-001
    endloop
  endfacet
  facet normal 0.000000e+000 7.071068e-001 -7.071068e-001
    outer loop
      vertex   -5.643594e-001 1.325276e+001 -5.424058e-001
      vertex   2.856406e-001 1.350276e+001 -2.924058e-001
      vertex   5.356406e-001 1.325276e+001 -5.424058e-001
    endloop
  endfacet
  facet normal 7.071068e-001 7.071068e-001 0.000000e+000
    outer loop
      vertex   2.856406e-001 1.350276e+001 3.075942e-001
      vertex   5.356406e-001 1.325276e+001 5.575942e-001
      vertex   2.856406e-001 1.350276e+001 -2.924058e-001
    endloop
  endfacet
  facet normal 7.071068e-001 7.071068e-001 0.000000e+000
    outer loop
      vertex   2.856406e-001 1.350276e+001 -2.924058e-001
      vertex   5.356406e-001 1.325276e+001 5.575942e-001
      vertex   5.356406e-001 1.325276e+001 -5.424058e-001
    endloop
  endfacet
  facet normal 0.000000e+000 7.071068e-001 7.071068e-001
    outer loop
      vertex   2.856406e-001 1.350276e+001 3.075942e-001
      vertex   -3.143594e-001 1.350276e+001 3.075942e-001
      vertex   5.356406e-001 1.325276e+001 5.575942e-001
    endloop
  endfacet
  facet normal 0.000000e+000 7.071068e-001 7.071068e-001
    outer loop
      vertex   5.356406e-001 1.325276e+001 5.575942e-001
      vertex   -3.143594e-001 1.350276e+001 3.075942e-001
      vertex   -5.643594e-001 1.325276e+001 5.575942e-001
    endloop
  endfacet
  facet normal 0.000000e+000 -0.000000e+000 1.000000e+000
    outer loop
      vertex   -5.643594e-001 3.552763e+000 5.575942e-001
      vertex   5.356406e-001 3.552763e+000 5.575942e-001
      vertex   -5.643594e-001 1.325276e+001 5.575942e-001
    endloop
  endfacet
  facet normal -0.000000e+000 0.000000e+000 1.000000e+000
    outer loop
      vertex   -5.643594e-001 1.325276e+001 5.575942e-001
      vertex   5.356406e-001 3.552763e+000 5.575942e-001
      vertex   5.356406e-001 1.325276e+001 5.575942e-001
    endloop
  endfacet
  facet normal -0.000000e+000 1.000000e+000 0.000000e+000
    outer loop
      vertex   -3.143594e-001 1.350276e+001 3.075942e-001
      vertex   2.856406e-001 1.350276e+001 3.075942e-001
      vertex   -3.143594e-001 1.350276e+001 -2.924058e-001
    endloop
  endfacet
  facet normal -0.000000e+000 1.000000e+000 0.000000e+000
    outer loop
      vertex   -3.143594e-001 1.350276e+001 -2.924058e-001
      vertex   2.856406e-001 1.350276e+001 3.075942e-001
      vertex   2.856406e-001 1.350276e+001 -2.924058e-001
    endloop
  endfacet
  facet normal -7.071068e-001 -7.071068e-001 0.000000e+000
    outer loop
      vertex   -3.143594e-001 -3.997237e+000 3.075942e-001
      vertex   -5.643594e-001 -3.747237e+000 5.575942e-001
      vertex   -3.143594e-001 -3.997237e+000 -2.924058e-001
    endloop
  endfacet
  facet normal -7.071068e-001 -7.071068e-001 -0.000000e+000
    outer loop
      vertex   -3.143594e-001 -3.997237e+000 -2.924058e-001
      vertex   -5.643594e-001 -3.747237e+000 5.575942e-001
      vertex   -5.643594e-001 -3.747237e+000 -5.424058e-001
    endloop
  endfacet
  facet normal -0.000000e+000 -7.071068e-001 -7.071068e-001
    outer loop
      vertex   2.856406e-001 -3.997237e+000 -2.924058e-001
      vertex   -3.143594e-001 -3.997237e+000 -2.924058e-001
      vertex   5.356406e-001 -3.747237e+000 -5.424058e-001
    endloop
  endfacet
  facet normal 0.000000e+000 -7.071068e-001 -7.071068e-001
    outer loop
      vertex   5.356406e-001 -3.747237e+000 -5.424058e-001
      vertex   -3.143594e-001 -3.997237e+000 -2.924058e-001
      vertex   -5.643594e-001 -3.747237e+000 -5.424058e-001
    endloop
  endfacet
  facet normal 4.088782e-017 -7.071068e-001 7.071068e-001
    outer loop
      vertex   -3.143594e-001 -3.997237e+000 3.075942e-001
      vertex   2.856406e-001 -3.997237e+000 3.075942e-001
      vertex   -5.643594e-001 -3.747237e+000 5.575942e-001
    endloop
  endfacet
  facet normal 0.000000e+000 -7.071068e-001 7.071068e-001
    outer loop
      vertex   -5.643594e-001 -3.747237e+000 5.575942e-001
      vertex   2.856406e-001 -3.997237e+000 3.075942e-001
      vertex   5.356406e-001 -3.747237e+000 5.575942e-001
    endloop
  endfacet
  facet normal 7.071068e-001 -7.071068e-001 -4.088782e-017
    outer loop
      vertex   2.856406e-001 -3.997237e+000 3.075942e-001
      vertex   2.856406e-001 -3.997237e+000 -2.924058e-001
      vertex   5.356406e-001 -3.747237e+000 5.575942e-001
    endloop
  endfacet
  facet normal 7.071068e-001 -7.071068e-001 0.000000e+000
    outer loop
      vertex   5.356406e-001 -3.747237e+000 5.575942e-001
      vertex   2.856406e-001 -3.997237e+000 -2.924058e-001
      vertex   5.356406e-001 -3.747237e+000 -5.424058e-001
    endloop
  endfacet
  facet normal 0.000000e+000 -1.000000e+000 0.000000e+000
    outer loop
      vertex   -3.143594e-001 -3.997237e+000 -2.924058e-001
      vertex   2.856406e-001 -3.997237e+000 -2.924058e-001
      vertex   -3.143594e-001 -3.997237e+000 3.075942e-001
    endloop
  endfacet
  facet normal 0.000000e+000 -1.000000e+000 0.000000e+000
    outer loop
      vertex   -3.143594e-001 -3.997237e+000 3.075942e-001
      vertex   2.856406e-001 -3.997237e+000 -2.924058e-001
      vertex   2.856406e-001 -3.997237e+000 3.075942e-001
    endloop
  endfacet
  facet normal 1.000000e+000 -0.000000e+000 0.000000e+000
    outer loop
      vertex   5.356406e-001 3.552763e+000 5.575942e-001
      vertex   5.356406e-001 3.552763e+000 -5.424058e-001
      vertex   5.356406e-001 1.325276e+001 5.575942e-001
    endloop
  endfacet
  facet normal 1.000000e+000 -0.000000e+000 0.000000e+000
    outer loop
      vertex   5.356406e-001 1.325276e+001 5.575942e-001
      vertex   5.356406e-001 3.552763e+000 -5.424058e-001
      vertex   5.356406e-001 1.325276e+001 -5.424058e-001
    endloop
  endfacet
  facet normal 0.000000e+000 -0.000000e+000 -1.000000e+000
    outer loop
      vertex   -5.643594e-001 2.762601e-003 -4.504806e+000
      vertex   5.356406e-001 2.762601e-003 -4.504806e+000
      vertex   -5.643594e-001 -3.747237e+000 -4.504806e+000
    endloop
  endfacet
  facet normal 0.000000e+000 0.000000e+000 -1.000000e+000
    outer loop
      vertex   -5.643594e-001 -3.747237e+000 -4.504806e+000
      vertex   5.356406e-001 2.762601e-003 -4.504806e+000
      vertex   5.356406e-001 -3.747237e+000 -4.504806e+000
    endloop
  endfacet
  facet normal 0.000000e+000 0.000000e+000 -1.000000e+000
    outer loop
      vertex   5.356406e-001 3.552763e+000 -4.504806e+000
      vertex   -5.643594e-001 3.552763e+000 -4.504806e+000
      vertex   5.356406e-001 1.325276e+001 -4.504806e+000
    endloop
  endfacet
  facet normal -0.000000e+000 0.000000e+000 -1.000000e+000
    outer loop
      vertex   5.356406e-001 1.325276e+001 -4.504806e+000
      vertex   -5.643594e-001 3.552763e+000 -4.504806e+000
      vertex   -5.643594e-001 1.325276e+001 -4.504806e+000
    endloop
  endfacet
  facet normal -1.000000e+000 -0.000000e+000 -0.000000e+000
    outer loop
      vertex   -5.643594e-001 2.762601e-003 -3.404806e+000
      vertex   -5.643594e-001 2.762601e-003 -4.504806e+000
      vertex   -5.643594e-001 -3.747237e+000 -3.404806e+000
    endloop
  endfacet
  facet normal -1.000000e+000 -0.000000e+000 -0.000000e+000
    outer loop
      vertex   -5.643594e-001 -3.747237e+000 -3.404806e+000
      vertex   -5.643594e-001 2.762601e-003 -4.504806e+000
      vertex   -5.643594e-001 -3.747237e+000 -4.504806e+000
    endloop
  endfacet
  facet normal -1.000000e+000 0.000000e+000 0.000000e+000
    outer loop
      vertex   -5.643594e-001 3.552763e+000 -4.504806e+000
      vertex   -5.643594e-001 3.552763e+000 -3.404806e+000
      vertex   -5.643594e-001 1.325276e+001 -4.504806e+000
    endloop
  endfacet
  facet normal -1.000000e+000 0.000000e+000 0.000000e+000
    outer loop
      vertex   -5.643594e-001 1.325276e+001 -4.504806e+000
      vertex   -5.643594e-001 3.552763e+000 -3.404806e+000
      vertex   -5.643594e-001 1.325276e+001 -3.404806e+000
    endloop
  endfacet
  facet normal 1.000000e+000 0.000000e+000 -0.000000e+000
    outer loop
      vertex   5.356406e-001 2.762601e-003 -4.504806e+000
      vertex   5.356406e-001 2.762601e-003 -3.404806e+000
      vertex   5.356406e-001 -3.747237e+000 -4.504806e+000
    endloop
  endfacet
  facet normal 1.000000e+000 0.000000e+000 -0.000000e+000
    outer loop
      vertex   5.356406e-001 -3.747237e+000 -4.504806e+000
      vertex   5.356406e-001 2.762601e-003 -3.404806e+000
      vertex   5.356406e-001 -3.747237e+000 -3.404806e+000
    endloop
  endfacet
  facet normal 0.000000e+000 0.000000e+000 1.000000e+000
    outer loop
      vertex   5.356406e-001 2.762601e-003 -3.404806e+000
      vertex   -5.643594e-001 2.762601e-003 -3.404806e+000
      vertex   5.356406e-001 -3.747237e+000 -3.404806e+000
    endloop
  endfacet
  facet normal 0.000000e+000 0.000000e+000 1.000000e+000
    outer loop
      vertex   5.356406e-001 -3.747237e+000 -3.404806e+000
      vertex   -5.643594e-001 2.762601e-003 -3.404806e+000
      vertex   -5.643594e-001 -3.747237e+000 -3.404806e+000
    endloop
  endfacet
  facet normal -7.071068e-001 7.071068e-001 0.000000e+000
    outer loop
      vertex   -3.143594e-001 1.350276e+001 -3.654806e+000
      vertex   -3.143594e-001 1.350276e+001 -4.254806e+000
      vertex   -5.643594e-001 1.325276e+001 -3.404806e+000
    endloop
  endfacet
  facet normal -7.071068e-001 7.071068e-001 0.000000e+000
    outer loop
      vertex   -5.643594e-001 1.325276e+001 -3.404806e+000
      vertex   -3.143594e-001 1.350276e+001 -4.254806e+000
      vertex   -5.643594e-001 1.325276e+001 -4.504806e+000
    endloop
  endfacet
  facet normal 0.000000e+000 7.071068e-001 -7.071068e-001
    outer loop
      vertex   -3.143594e-001 1.350276e+001 -4.254806e+000
      vertex   2.856406e-001 1.350276e+001 -4.254806e+000
      vertex   -5.643594e-001 1.325276e+001 -4.504806e+000
    endloop
  endfacet
  facet normal 0.000000e+000 7.071068e-001 -7.071068e-001
    outer loop
      vertex   -5.643594e-001 1.325276e+001 -4.504806e+000
      vertex   2.856406e-001 1.350276e+001 -4.254806e+000
      vertex   5.356406e-001 1.325276e+001 -4.504806e+000
    endloop
  endfacet
  facet normal 7.071068e-001 7.071068e-001 0.000000e+000
    outer loop
      vertex   2.856406e-001 1.350276e+001 -3.654806e+000
      vertex   5.356406e-001 1.325276e+001 -3.404806e+000
      vertex   2.856406e-001 1.350276e+001 -4.254806e+000
    endloop
  endfacet
  facet normal 7.071068e-001 7.071068e-001 0.000000e+000
    outer loop
      vertex   2.856406e-001 1.350276e+001 -4.254806e+000
      vertex   5.356406e-001 1.325276e+001 -3.404806e+000
      vertex   5.356406e-001 1.325276e+001 -4.504806e+000
    endloop
  endfacet
  facet normal 0.000000e+000 7.071068e-001 7.071068e-001
    outer loop
      vertex   2.856406e-001 1.350276e+001 -3.654806e+000
      vertex   -3.143594e-001 1.350276e+001 -3.654806e+000
      vertex   5.356406e-001 1.325276e+001 -3.404806e+000
    endloop
  endfacet
  facet normal 0.000000e+000 7.071068e-001 7.071068e-001
    outer loop
      vertex   5.356406e-001 1.325276e+001 -3.404806e+000
      vertex   -3.143594e-001 1.350276e+001 -3.654806e+000
      vertex   -5.643594e-001 1.325276e+001 -3.404806e+000
    endloop
  endfacet
  facet normal 0.000000e+000 -0.000000e+000 1.000000e+000
    outer loop
      vertex   -5.643594e-001 3.552763e+000 -3.404806e+000
      vertex   5.356406e-001 3.552763e+000 -3.404806e+000
      vertex   -5.643594e-001 1.325276e+001 -3.404806e+000
    endloop
  endfacet
  facet normal -0.000000e+000 0.000000e+000 1.000000e+000
    outer loop
      vertex   -5.643594e-001 1.325276e+001 -3.404806e+000
      vertex   5.356406e-001 3.552763e+000 -3.404806e+000
      vertex   5.356406e-001 1.325276e+001 -3.404806e+000
    endloop
  endfacet
  facet normal -0.000000e+000 1.000000e+000 0.000000e+000
    outer loop
      vertex   -3.143594e-001 1.350276e+001 -3.654806e+000
      vertex   2.856406e-001 1.350276e+001 -3.654806e+000
      vertex   -3.143594e-001 1.350276e+001 -4.254806e+000
    endloop
  endfacet
  facet normal -0.000000e+000 1.000000e+000 0.000000e+000
    outer loop
      vertex   -3.143594e-001 1.350276e+001 -4.254806e+000
      vertex   2.856406e-001 1.350276e+001 -3.654806e+000
      vertex   2.856406e-001 1.350276e+001 -4.254806e+000
    endloop
  endfacet
  facet normal -7.071068e-001 -7.071068e-001 0.000000e+000
    outer loop
      vertex   -3.143594e-001 -3.997237e+000 -3.654806e+000
      vertex   -5.643594e-001 -3.747237e+000 -3.404806e+000
      vertex   -3.143594e-001 -3.997237e+000 -4.254806e+000
    endloop
  endfacet
  facet normal -7.071068e-001 -7.071068e-001 -0.000000e+000
    outer loop
      vertex   -3.143594e-001 -3.997237e+000 -4.254806e+000
      vertex   -5.643594e-001 -3.747237e+000 -3.404806e+000
      vertex   -5.643594e-001 -3.747237e+000 -4.504806e+000
    endloop
  endfacet
  facet normal -0.000000e+000 -7.071068e-001 -7.071068e-001
    outer loop
      vertex   2.856406e-001 -3.997237e+000 -4.254806e+000
      vertex   -3.143594e-001 -3.997237e+000 -4.254806e+000
      vertex   5.356406e-001 -3.747237e+000 -4.504806e+000
    endloop
  endfacet
  facet normal 0.000000e+000 -7.071068e-001 -7.071068e-001
    outer loop
      vertex   5.356406e-001 -3.747237e+000 -4.504806e+000
      vertex   -3.143594e-001 -3.997237e+000 -4.254806e+000
      vertex   -5.643594e-001 -3.747237e+000 -4.504806e+000
    endloop
  endfacet
  facet normal 6.542052e-016 -7.071068e-001 7.071068e-001
    outer loop
      vertex   -3.143594e-001 -3.997237e+000 -3.654806e+000
      vertex   2.856406e-001 -3.997237e+000 -3.654806e+000
      vertex   -5.643594e-001 -3.747237e+000 -3.404806e+000
    endloop
  endfacet
  facet normal 0.000000e+000 -7.071068e-001 7.071068e-001
    outer loop
      vertex   -5.643594e-001 -3.747237e+000 -3.404806e+000
      vertex   2.856406e-001 -3.997237e+000 -3.654806e+000
      vertex   5.356406e-001 -3.747237e+000 -3.404806e+000
    endloop
  endfacet
  facet normal 7.071068e-001 -7.071068e-001 -4.088782e-017
    outer loop
      vertex   2.856406e-001 -3.997237e+000 -3.654806e+000
      vertex   2.856406e-001 -3.997237e+000 -4.254806e+000
      vertex   5.356406e-001 -3.747237e+000 -3.404806e+000
    endloop
  endfacet
  facet normal 7.071068e-001 -7.071068e-001 0.000000e+000
    outer loop
      vertex   5.356406e-001 -3.747237e+000 -3.404806e+000
      vertex   2.856406e-001 -3.997237e+000 -4.254806e+000
      vertex   5.356406e-001 -3.747237e+000 -4.504806e+000
    endloop
  endfacet
  facet normal 0.000000e+000 -1.000000e+000 0.000000e+000
    outer loop
      vertex   -3.143594e-001 -3.997237e+000 -4.254806e+000
      vertex   2.856406e-001 -3.997237e+000 -4.254806e+000
      vertex   -3.143594e-001 -3.997237e+000 -3.654806e+000
    endloop
  endfacet
  facet normal 0.000000e+000 -1.000000e+000 0.000000e+000
    outer loop
      vertex   -3.143594e-001 -3.997237e+000 -3.654806e+000
      vertex   2.856406e-001 -3.997237e+000 -4.254806e+000
      vertex   2.856406e-001 -3.997237e+000 -3.654806e+000
    endloop
  endfacet
  facet normal 1.000000e+000 -0.000000e+000 0.000000e+000
    outer loop
      vertex   5.356406e-001 3.552763e+000 -3.404806e+000
      vertex   5.356406e-001 3.552763e+000 -4.504806e+000
      vertex   5.356406e-001 1.325276e+001 -3.404806e+000
    endloop
  endfacet
  facet normal 1.000000e+000 -0.000000e+000 0.000000e+000
    outer loop
      vertex   5.356406e-001 1.325276e+001 -3.404806e+000
      vertex   5.356406e-001 3.552763e+000 -4.504806e+000
      vertex   5.356406e-001 1.325276e+001 -4.504806e+000
    endloop
  endfacet
endsolid
